<svg xmlns="http://www.w3.org/2000/svg" width="176.777" height="72.379" viewBox="0 0 176.777 72.379">
  <g id="Group_3482" data-name="Group 3482" transform="translate(-858.918 -20.679)">
    <rect id="Rectangle_87" data-name="Rectangle 87" width="176.777" height="72.379" transform="translate(858.918 20.679)" fill="#ebc945"/>
    <path id="Path_235" data-name="Path 235" d="M890.58,63.874h1.306a.8.8,0,1,1,0,1.575H890.58Zm1.41-1.317h-3v6.669h1.587V66.777h.666l1.881,2.449h1.986l-2.264-2.684.011,0a2.093,2.093,0,0,0,1.524-1.918,2.249,2.249,0,0,0-2.394-2.065" transform="translate(69.429 4.886)" fill="#171512" fill-rule="evenodd"/>
    <path id="Path_236" data-name="Path 236" d="M860.677,64.429l.891,1.921h-1.819Zm.786-1.847h-1.483l-3.317,6.644h1.72l.639-1.375h3.26l.665,1.375h1.876Z" transform="translate(66.904 4.888)" fill="#171512" fill-rule="evenodd"/>
    <path id="Path_237" data-name="Path 237" d="M870.861,66.35l.928-1.921.9,1.921Zm.231-3.768-3.317,6.644h1.719l.64-1.375h3.259l.665,1.375h1.877l-3.359-6.644Z" transform="translate(67.772 4.888)" fill="#171512" fill-rule="evenodd"/>
    <path id="Path_238" data-name="Path 238" d="M900.006,65.221a1.925,1.925,0,0,0-3.746.047,2.979,2.979,0,0,0,.015,1.379,1.926,1.926,0,0,0,3.742-.022,3.032,3.032,0,0,0-.011-1.4m.729,3.209a3.437,3.437,0,0,0,.178-4.862l-.157-.158a3.809,3.809,0,0,0-5.052-.163,3.458,3.458,0,0,0-.455,4.873,3.586,3.586,0,0,0,.477.472,3.816,3.816,0,0,0,5.01-.162" transform="translate(69.855 4.871)" fill="#171512" fill-rule="evenodd"/>
    <path id="Path_239" data-name="Path 239" d="M887.991,59.58h5.25l.226-14.628,3.5,14.628h4.7l3.4-14.919.183,14.919h6.326L910.52,38.91h-8.206l-2.379,11.063L897.256,38.91h-8.375Z" transform="translate(69.351 3.039)" fill="#171512"/>
    <path id="Path_240" data-name="Path 240" d="M860.94,51.076A9.045,9.045,0,0,0,859.1,51v4.847a4.118,4.118,0,0,0,2.039-.207,1.813,1.813,0,0,0,1.1-1.116,3.928,3.928,0,0,0,.1-2.185,1.684,1.684,0,0,0-1.4-1.268m1.211-7.418a1.611,1.611,0,0,0-1.394-1.161,7.874,7.874,0,0,0-1.593-.016v4.584a4.721,4.721,0,0,0,1.72-.136,1.8,1.8,0,0,0,1.247-1.207,3.644,3.644,0,0,0,.02-2.063m6.666,7.773A4.223,4.223,0,0,0,866.847,49a5.544,5.544,0,0,0-2.185-.677l.639-.246a4.5,4.5,0,0,0,2.389-2.116,5.085,5.085,0,0,0,.063-4.625,4.008,4.008,0,0,0-2.363-2.031,9.617,9.617,0,0,0-2.583-.457c-.828-.041-2.458-.064-3.286-.045l-6.64.091v20.7h7.877a18.175,18.175,0,0,0,3.307-.3,6.149,6.149,0,0,0,4.927-7.16,6.334,6.334,0,0,0-.174-.7" transform="translate(66.609 3.03)" fill="#171512" fill-rule="evenodd"/>
    <path id="Path_241" data-name="Path 241" d="M852.88,69.227h1.672V66.844h2.327V65.329h-2.327v-1.28h4.14V62.583H852.88Z" transform="translate(66.609 4.888)" fill="#171512"/>
    <path id="Path_242" data-name="Path 242" d="M876.024,64.074v5.152h1.667V64.074h1.87V62.582H874v1.492Z" transform="translate(68.258 4.888)" fill="#171512"/>
    <path id="Path_243" data-name="Path 243" d="M885.945,65.319v1.488h1.4v1.065a2.8,2.8,0,0,1-1.7.118,1.865,1.865,0,0,1-1.289-1.133,2.671,2.671,0,0,1-.094-1.646,1.54,1.54,0,0,1,.806-.992,2.282,2.282,0,0,1,1.017-.238h2.658V62.559h-2.521a5.323,5.323,0,0,0-1.085.112,3.374,3.374,0,0,0-.86,6.3,4.337,4.337,0,0,0,4.482-.307V65.319Z" transform="translate(68.918 4.886)" fill="#171512"/>
    <path id="Path_244" data-name="Path 244" d="M903.511,67.184a1.107,1.107,0,0,0,.681.79,1.576,1.576,0,0,0,1.189,0,1.089,1.089,0,0,0,.681-.79,3.206,3.206,0,0,0,.079-.773V62.558h1.588v4.1a2.757,2.757,0,0,1-1.9,2.618,3.373,3.373,0,0,1-2.248-.06A2.7,2.7,0,0,1,901.85,66.7V62.558h1.587v3.853a3.5,3.5,0,0,0,.074.773" transform="translate(70.433 4.886)" fill="#171512"/>
    <rect id="Rectangle_88" data-name="Rectangle 88" width="6.944" height="6.944" transform="matrix(0.707, -0.707, 0.707, 0.707, 886.458, 52.243)" fill="#171512"/>
    <path id="Path_245" data-name="Path 245" d="M836.915,49.786,822.844,35.719l4.261-4.26,18.327,18.327L833.813,61.4l-4.261-4.26Z" transform="translate(64.263 2.457)" fill="#171512"/>
    <path id="Path_246" data-name="Path 246" d="M818.313,49.3l7.363-7.358-4.261-4.26L809.8,49.3l18.327,18.327,4.261-4.26Z" transform="translate(63.244 2.943)" fill="#171512"/>
    <path id="Path_247" data-name="Path 247" d="M880.219,43.7a2.073,2.073,0,0,0-2.862-.639,2.027,2.027,0,0,0-.654.664,5.193,5.193,0,0,0-.74,2.08,26.129,26.129,0,0,0,.032,6.889,5.174,5.174,0,0,0,.711,1.988,2.038,2.038,0,0,0,3.428.049,4.61,4.61,0,0,0,.717-1.883,25.788,25.788,0,0,0,0-7.462,4.256,4.256,0,0,0-.629-1.685m6.76,10.449a17.578,17.578,0,0,0-.3-10.458,7.338,7.338,0,0,0-4.827-4.651,11.9,11.9,0,0,0-6.367-.138,7.483,7.483,0,0,0-5.12,4.524,16.494,16.494,0,0,0-.341,11.093,7.582,7.582,0,0,0,4.717,4.821,10.9,10.9,0,0,0,8.232-.439,7.482,7.482,0,0,0,4.009-4.752" transform="translate(67.885 3.009)" fill="#171512" fill-rule="evenodd"/>
    <path id="Path_248" data-name="Path 248" d="M922.818,50.354l-1.509-7.548-1.735,7.548Zm-4.182,4.087h5l1.032,5.139h6.546L925.56,38.911H917.7L911.567,59.58h5.89Z" transform="translate(71.192 3.039)" fill="#171512" fill-rule="evenodd"/>
    <path id="Path_249" data-name="Path 249" d="M867.161,66.288v2.939h-1.682V66.288l-3.543-3.706h2.08l2.311,2.293,2.3-2.293h2.092Z" transform="translate(67.316 4.888)" fill="#171512"/>
    <path id="Path_250" data-name="Path 250" d="M909.922,67.615h.923a2.544,2.544,0,1,0,0-5.057h-2.835v6.67H909.6V67.615h.325Zm-.325-3.739h1.085a1.221,1.221,0,1,1,0,2.429H909.6Z" transform="translate(70.914 4.886)" fill="#171512" fill-rule="evenodd"/>
    <path id="Path_251" data-name="Path 251" d="M945.754,44.661a5.907,5.907,0,0,0-2.6-1.335,6.828,6.828,0,0,0-2.762-.059,4.463,4.463,0,0,0-3.537,3.387,13.6,13.6,0,0,0-.157,5.4,5.146,5.146,0,0,0,.828,2.019,2.78,2.78,0,0,0,3.318.993l-.131-5.9,6.221-.093L946.9,58.9a19.992,19.992,0,0,1-9.365.836,8.581,8.581,0,0,1-5.409-3.1,9.409,9.409,0,0,1-1.944-4.24,14.961,14.961,0,0,1,.938-8.532,8.411,8.411,0,0,1,5.676-4.879,15.049,15.049,0,0,1,6.871-.132,12.422,12.422,0,0,1,2.526.838Z" transform="translate(72.626 3.009)" fill="#171512"/>
  </g>
</svg>
