<svg xmlns="http://www.w3.org/2000/svg" width="19.655" height="13.826" viewBox="0 0 19.655 13.826">
  <g id="Group_3491" data-name="Group 3491" transform="translate(-196.347 -88.433)">
    <path id="Path_1397" data-name="Path 1397" d="M196.347,89.933c.054-.167.108-.334.159-.489q2.979,2.955,5.938,5.886l-5.943,5.887-.154-.457Z" fill="#fff"/>
    <path id="Path_1398" data-name="Path 1398" d="M214.983,88.632c-.283.277-.568.551-.847.831q-3.707,3.716-7.412,7.434a.687.687,0,0,1-1.1,0l-8.116-8.142c-.044-.044-.086-.092-.166-.178.229-.05.423-.1.62-.134a1.373,1.373,0,0,1,.249-.006q7.963,0,15.927,0a7.012,7.012,0,0,1,.824.1Z" fill="#fff"/>
    <path id="Path_1399" data-name="Path 1399" d="M209.053,96.211l5.96,5.9c-.235.052-.429.1-.624.137a1.01,1.01,0,0,1-.191.005h-16.04a1.679,1.679,0,0,1-.792-.167l5.94-5.88c.012.011.064.056.112.1q.7.707,1.408,1.414a1.82,1.82,0,0,0,2.695,0c.516-.514,1.034-1.027,1.532-1.521" fill="#fff"/>
    <path id="Path_1400" data-name="Path 1400" d="M215.862,101.266l-5.956-5.9,5.963-5.9a3.551,3.551,0,0,1,.126.673q.014,5.219,0,10.437a3.693,3.693,0,0,1-.133.7" fill="#fff"/>
  </g>
</svg>
