<svg xmlns="http://www.w3.org/2000/svg" width="28.311" height="28.311" viewBox="0 0 28.311 28.311">
  <g id="Group_3490" data-name="Group 3490" transform="translate(-274.076 0)">
    <path id="Path_84" data-name="Path 84" d="M288.231,0h0a14.156,14.156,0,1,0,14.156,14.155A14.156,14.156,0,0,0,288.231,0m9.043,18.242a1.732,1.732,0,0,1-1.636,1.728v0H280.825v0a1.732,1.732,0,0,1-1.636-1.728V10.069a1.727,1.727,0,0,1,.542-1.257l.014-.013a1.783,1.783,0,0,1,.185-.15l.006,0a1.724,1.724,0,0,1,.2-.121l.038-.018a1.642,1.642,0,0,1,.208-.084l.013-.005a1.848,1.848,0,0,1,.228-.054l.054-.008c.048-.007.1-.011.145-.014v0h14.813v0c.049,0,.1.007.144.014l.055.008a1.892,1.892,0,0,1,.228.054l.013.005a1.776,1.776,0,0,1,.208.084l.038.018a1.811,1.811,0,0,1,.2.121l.006,0a1.772,1.772,0,0,1,.184.15l.015.013a1.741,1.741,0,0,1,.422.627,1.71,1.71,0,0,1,.12.63Z" fill="#ecb51d"/>
    <path id="Path_92" data-name="Path 92" d="M295.638,10.414V19.97a1.732,1.732,0,0,0,1.636-1.728V10.069a1.71,1.71,0,0,0-.12-.63Z" fill="#ecb51d"/>
    <path id="Path_93" data-name="Path 93" d="M279.309,9.439a1.731,1.731,0,0,1,.423-.627,1.724,1.724,0,0,0-.543,1.257v8.173a1.733,1.733,0,0,0,1.637,1.728V10.414Z" fill="#ecb51d"/>
    <path id="Path_96" data-name="Path 96" d="M280.825,10.414l7.406,4.762h0l7.406-4.761,1.516-.975a1.741,1.741,0,0,0-.422-.627l-.015-.013a1.772,1.772,0,0,0-.184-.15l-.006,0a1.811,1.811,0,0,0-.2-.121l-.038-.018a1.776,1.776,0,0,0-.208-.084l-.013-.005a1.892,1.892,0,0,0-.228-.054l-.055-.008c-.047-.007-.1-.008-.144-.011h-.011l-7.4,4.511-7.395-4.511h-.011c-.049,0-.1,0-.145.011l-.054.008a1.848,1.848,0,0,0-.228.054l-.013.005a1.642,1.642,0,0,0-.208.084l-.038.018a1.724,1.724,0,0,0-.2.121l-.006,0a1.783,1.783,0,0,0-.185.15l-.014.013a1.743,1.743,0,0,0-.423.627Z" fill="#ecb51d"/>
  </g>
</svg>
