<svg xmlns="http://www.w3.org/2000/svg" width="16.688" height="14.167" viewBox="0 0 16.688 14.167">
  <g id="Group_3492" data-name="Group 3492" transform="translate(-164.314 -60.257)">
    <path id="Path_1393" data-name="Path 1393" d="M166.714,67.074v-.243q0-2.933,0-5.865c0-.5.209-.709.7-.709h10.478c.5,0,.71.208.71.719v6.088c.075,0,.14.008.205.009.4,0,.8,0,1.2,0A.947.947,0,0,1,181,68.093q0,2.656,0,5.312a.957.957,0,0,1-1.016,1.018q-7.323,0-14.647,0a.961.961,0,0,1-1.023-1.029q0-2.646,0-5.293a.95.95,0,0,1,1-1.026c.454-.007.909,0,1.4,0M177.005,62h-8.7v6.256h8.7Zm.764,10.214a1.052,1.052,0,0,0,1.048-1.058,1.063,1.063,0,0,0-1.064-1.047,1.053,1.053,0,0,0,.016,2.105" fill="#fff"/>
    <path id="Path_1394" data-name="Path 1394" d="M172.653,66.893h-2.73a.549.549,0,1,1-.01-1.1h5.5a.549.549,0,0,1-.009,1.1h-2.749" fill="#fff"/>
    <path id="Path_1395" data-name="Path 1395" d="M172.658,64.432h-2.767a.544.544,0,0,1,0-1.088q2.766,0,5.533,0a.447.447,0,0,1,.492.328.6.6,0,0,1-.166.67.579.579,0,0,1-.308.086c-.928.007-1.857,0-2.784,0" fill="#fff"/>
  </g>
</svg>
