<svg xmlns="http://www.w3.org/2000/svg" width="347.314" height="348.25" viewBox="0 0 347.314 348.25">
  <g id="Group_3487" data-name="Group 3487" transform="translate(-449.973 -162.923)">
    <g id="คู่ค้า">
      <rect id="Rectangle_106" data-name="Rectangle 106" width="347.313" height="348.249" transform="translate(449.973 162.924)" fill="#ecb51d"/>
      <path id="Path_267" data-name="Path 267" d="M449.974,509.136v2.036H797.287V162.923h-1.1Z" fill="#f6c752"/>
    </g>
    <g id="Group_3486" data-name="Group 3486">
      <path id="Path_281" data-name="Path 281" d="M560.2,368.455a21.433,21.433,0,1,1,21.433-21.433A21.458,21.458,0,0,1,560.2,368.455m0-36.541A15.108,15.108,0,1,0,575.3,347.022,15.125,15.125,0,0,0,560.2,331.914" fill="#fff"/>
      <path id="Path_282" data-name="Path 282" d="M522.327,444.068a3.2,3.2,0,0,1-.412-.027,3.162,3.162,0,0,1-2.728-3.544l6.431-49.475a3.225,3.225,0,0,1,.063-.34,24.59,24.59,0,0,1,23.954-18.827h15.849a31.433,31.433,0,0,1,23.022,10.074,3.227,3.227,0,0,1,.27.336L604.852,405.3a16.924,16.924,0,0,0,5.447,4.976l19.339,11.051A11.1,11.1,0,0,1,618.982,440.8L596.75,429.169a23.063,23.063,0,0,1-6.752-5.34l-9.182-10.205V440.9a3.162,3.162,0,1,1-6.325,0V405.381A3.162,3.162,0,0,1,580,403.266l14.715,16.353c.014.016.028.031.041.047a16.8,16.8,0,0,0,4.922,3.9L621.915,435.2a4.777,4.777,0,0,0,4.585-8.38l-19.339-11.051a23.288,23.288,0,0,1-7.5-6.848l-15.948-22.85a25.093,25.093,0,0,0-18.233-7.888H549.635a18.28,18.28,0,0,0-17.768,13.835l-6.408,49.3a3.163,3.163,0,0,1-3.132,2.755" fill="#fff"/>
      <path id="Path_283" data-name="Path 283" d="M539.674,444.067a3.163,3.163,0,0,1-3.163-3.163V403.841a3.163,3.163,0,0,1,6.326,0V440.9a3.163,3.163,0,0,1-3.163,3.163" fill="#fff"/>
      <path id="Path_284" data-name="Path 284" d="M687.83,368.455a21.433,21.433,0,1,1,21.433-21.433,21.458,21.458,0,0,1-21.433,21.433m0-36.541a15.108,15.108,0,1,0,15.108,15.108,15.125,15.125,0,0,0-15.108-15.108" fill="#fff"/>
      <path id="Path_285" data-name="Path 285" d="M725.7,444.068a3.163,3.163,0,0,1-3.132-2.755l-6.409-49.3a18.279,18.279,0,0,0-17.767-13.835H682.544a25.093,25.093,0,0,0-18.233,7.888l-15.949,22.85a23.272,23.272,0,0,1-7.495,6.848L626.3,424.091a3.163,3.163,0,0,1-3.138-5.492l14.569-8.325a16.909,16.909,0,0,0,5.446-4.976l16.076-23.033a3.244,3.244,0,0,1,.271-.336,31.43,31.43,0,0,1,23.022-10.074h15.849a24.59,24.59,0,0,1,23.954,18.827,3.209,3.209,0,0,1,.063.34l6.431,49.475a3.162,3.162,0,0,1-2.728,3.544,3.2,3.2,0,0,1-.412.027" fill="#fff"/>
      <path id="Path_286" data-name="Path 286" d="M670.374,444.067a3.163,3.163,0,0,1-3.163-3.163V413.36l-9.174,10.46a23.016,23.016,0,0,1-6.759,5.348L629.046,440.8a3.163,3.163,0,1,1-2.933-5.6l22.232-11.633a16.75,16.75,0,0,0,4.922-3.9L668,402.874a3.163,3.163,0,0,1,5.541,2.085V440.9a3.163,3.163,0,0,1-3.163,3.163" fill="#fff"/>
      <path id="Path_287" data-name="Path 287" d="M708.353,444.067a3.163,3.163,0,0,1-3.163-3.163V403.841a3.163,3.163,0,0,1,6.326,0V440.9a3.163,3.163,0,0,1-3.163,3.163" fill="#fff"/>
      <path id="Path_288" data-name="Path 288" d="M621.756,354.575a5.663,5.663,0,0,1-5.719-5.422l-.025-5.864a30.137,30.137,0,0,1-12.059-4.6,5.374,5.374,0,0,1-1.858-6.265l2.237-6.342a5.417,5.417,0,0,1,3.4-3.353,5.494,5.494,0,0,1,4.743.617,19.4,19.4,0,0,0,10.6,3.1,7.511,7.511,0,0,0,4.547-1.279,3.052,3.052,0,0,0,1.24-2.558c-.005-1.138-.015-3.255-7.279-6.158-9.368-3.621-18.988-8.995-19.048-21.306-.045-9.181,5.36-16.477,14.276-19.535l-.029-7.772a5.193,5.193,0,0,1,5.224-5.389l5.858-.028h.029a5.327,5.327,0,0,1,5.4,5.34l.024,6.758a29.868,29.868,0,0,1,9.627,3.442,5.444,5.444,0,0,1,2.4,6.621l-2.332,6.249a5.451,5.451,0,0,1-7.789,2.839,17.352,17.352,0,0,0-9.111-2.449h-.1c-1.705.009-4.564.37-4.553,2.7.005,1.015.011,2.279,8.371,5.691,16.165,6.5,18.075,15.808,18.106,22.244.046,9.363-5.706,17.127-14.854,20.359l.029,6.866a5.432,5.432,0,0,1-5.378,5.474l-5.954.029Zm.606-5.45h0Zm4.429-.024h0ZM608.26,333.957a26.439,26.439,0,0,0,11.17,3.394,3.163,3.163,0,0,1,2.9,3.138l.032,7.759,4.429-.022-.035-8.35a3.162,3.162,0,0,1,2.391-3.081c7.612-1.915,12.509-7.77,12.473-14.917-.017-3.487-.052-10.742-14.148-16.409l-.015-.006c-8.321-3.4-12.286-5.986-12.314-11.52-.021-4.48,3.324-9.017,10.847-9.054a23.914,23.914,0,0,1,11.46,2.774l1.711-4.583a24.989,24.989,0,0,0-9.286-2.666,3.162,3.162,0,0,1-2.859-3.136l-.031-8.535-3.862.019.033,9.2a3.162,3.162,0,0,1-2.421,3.087c-7.462,1.8-11.9,7.057-11.863,14.061.039,8.015,6.04,11.973,15.037,15.45,7.9,3.157,11.265,6.746,11.291,12.013a9.379,9.379,0,0,1-3.661,7.566,13.581,13.581,0,0,1-8.421,2.628,26.109,26.109,0,0,1-13.179-3.554Z" fill="#fff"/>
      <path id="Path_289" data-name="Path 289" d="M624.85,376.6a67.723,67.723,0,0,1-38.542-11.949,3.163,3.163,0,0,1,3.584-5.212,61.811,61.811,0,0,0,69.238.46,3.162,3.162,0,1,1,3.515,5.258,67.781,67.781,0,0,1-37.8,11.443" fill="#fff"/>
      <path id="Path_290" data-name="Path 290" d="M689.287,319.787a3.12,3.12,0,0,1-.4-.025,3.162,3.162,0,0,1-2.746-3.53,62.682,62.682,0,0,0,.479-7.737,61.775,61.775,0,0,0-123.55,0,62.762,62.762,0,0,0,.32,6.32,3.163,3.163,0,0,1-6.293.639,68.964,68.964,0,0,1-.352-6.959,68.1,68.1,0,1,1,136.2,0,68.915,68.915,0,0,1-.528,8.521,3.164,3.164,0,0,1-3.134,2.771" fill="#fff"/>
    </g>
  </g>
</svg>
