<svg xmlns="http://www.w3.org/2000/svg" width="177.164" height="72.534" viewBox="0 0 177.164 72.534">
  <g id="Group_3483" data-name="Group 3483" transform="translate(-1092.836 -20.679)">
    <rect id="Rectangle_83" data-name="Rectangle 83" width="177.164" height="72.534" transform="translate(1092.836 20.679)" fill="#deb13f"/>
    <path id="Path_208" data-name="Path 208" d="M1131.1,28.554l-19.508-.022v-.005h-22.8a7.573,7.573,0,0,0-3.47.889v-.765h-26.285l.009,14.24-.009,6.982h.03V62.4a7.084,7.084,0,0,0,3.845,6.6,10.1,10.1,0,0,0,4.607,1.048c.237,0,.427-.006.55-.013h9.67l.291-.054a7.932,7.932,0,0,0,4.967-3.012,8.09,8.09,0,0,0,6.161,3.008l18.87.01v.061h21.511v-.013h8.825V37.589l0-.7a8.577,8.577,0,0,0-7.262-8.338" transform="translate(82.709 2.228)" fill="#26201f"/>
    <path id="Path_209" data-name="Path 209" d="M1062.04,49.631l.005-6.982-.005-11H1074.9" transform="translate(82.944 2.472)" fill="#deb13f"/>
    <path id="Path_210" data-name="Path 210" d="M1062.069,49.653h6.553v8.8h6.372l-.093-26.807h6.937V59.924s-.08,5.8-4.628,6.624h-9.495s-5.645.507-5.645-4.39Z" transform="translate(82.946 2.472)" fill="#fff"/>
    <path id="Path_211" data-name="Path 211" d="M1106.9,58.549l-4.658-14.042h-7.566L1099,58.549h-9.348V39.495h16.866V31.532H1087.01a4.835,4.835,0,0,0-4.575,5.1c0,.16.036.317.048.474h-.005v24.03a.861.861,0,0,0,0,.175,5.077,5.077,0,0,0,4.955,5.192c.048,0-.2,0-.146-.009l.287.015H1106.9V58.549Z" transform="translate(84.536 2.463)" fill="#fff"/>
    <rect id="Rectangle_84" data-name="Rectangle 84" width="6.498" height="20.687" transform="translate(1193.97 48.349)" fill="#fff"/>
    <rect id="Rectangle_85" data-name="Rectangle 85" width="6.496" height="20.687" transform="translate(1202.505 48.349)" fill="#fff"/>
    <path id="Path_212" data-name="Path 212" d="M1131.359,36.833a5.332,5.332,0,0,0-4.456-5.3H1107.2v7.736h17.047V66.557h7.116Z" transform="translate(86.47 2.463)" fill="#fff"/>
    <path id="Path_213" data-name="Path 213" d="M1031.577,73.979h-2.77V76.14h3.1v1.1h-4.443V69.884h4.276v1.1h-2.932v1.9h2.77Z" transform="translate(80.243 5.458)" fill="#26201f"/>
    <path id="Path_214" data-name="Path 214" d="M1034.28,71.778l.634,1c.171.284.326.546.48.818h.031c.154-.294.308-.567.458-.84l.59-.983h1.466l-1.783,2.555,1.814,2.762h-1.519l-.652-1.059c-.176-.285-.331-.568-.484-.862h-.018c-.154.306-.308.568-.484.862L1034.2,77.1h-1.488l1.844-2.708-1.779-2.609Z" transform="translate(80.654 5.606)" fill="#26201f"/>
    <path id="Path_215" data-name="Path 215" d="M1042.791,76.94a3.9,3.9,0,0,1-1.51.273,2.554,2.554,0,0,1-2.74-2.707,2.749,2.749,0,0,1,2.959-2.839,3.33,3.33,0,0,1,1.3.251l-.243,1a2.345,2.345,0,0,0-1.012-.207,1.722,1.722,0,0,0,0,3.439,2.583,2.583,0,0,0,1.056-.208Z" transform="translate(81.109 5.597)" fill="#26201f"/>
    <path id="Path_216" data-name="Path 216" d="M1047.13,77.1l-.087-.589h-.031a1.982,1.982,0,0,1-1.572.709,1.581,1.581,0,0,1-1.674-1.584c0-1.342,1.193-2.019,3.158-2.008v-.087c0-.349-.14-.928-1.079-.928a2.817,2.817,0,0,0-1.431.394l-.264-.874a3.848,3.848,0,0,1,1.924-.469,1.988,1.988,0,0,1,2.193,2.238v1.921a8.785,8.785,0,0,0,.076,1.278Zm-.176-2.6c-.947-.022-1.854.185-1.854.994a.7.7,0,0,0,.762.764,1.094,1.094,0,0,0,1.052-.732,1,1,0,0,0,.04-.294Z" transform="translate(81.517 5.597)" fill="#26201f"/>
    <path id="Path_217" data-name="Path 217" d="M1050.757,71.778l.863,2.7a13.293,13.293,0,0,1,.361,1.331h.036c.1-.437.216-.852.357-1.331l.841-2.7h1.422L1052.6,77.1h-1.316l-1.977-5.317Z" transform="translate(81.949 5.606)" fill="#26201f"/>
    <path id="Path_218" data-name="Path 218" d="M1058.677,77.1l-.089-.589h-.034a1.969,1.969,0,0,1-1.572.709,1.577,1.577,0,0,1-1.669-1.584c0-1.342,1.188-2.019,3.157-2.008v-.087c0-.349-.144-.928-1.082-.928a2.817,2.817,0,0,0-1.432.394l-.26-.874a3.826,3.826,0,0,1,1.92-.469,1.99,1.99,0,0,1,2.2,2.238v1.921a8.769,8.769,0,0,0,.075,1.278Zm-.176-2.6c-.951-.022-1.854.185-1.854.994a.7.7,0,0,0,.762.764,1.084,1.084,0,0,0,1.048-.732.889.889,0,0,0,.044-.294Z" transform="translate(82.418 5.597)" fill="#26201f"/>
    <path id="Path_219" data-name="Path 219" d="M1063.028,70.37v1.518h1.278v1h-1.278V75.24c0,.645.176.983.687.983a1.993,1.993,0,0,0,.524-.066l.022,1.026a2.953,2.953,0,0,1-.968.13,1.553,1.553,0,0,1-1.158-.437,2.1,2.1,0,0,1-.414-1.485v-2.5h-.767v-1h.767v-1.2Z" transform="translate(82.859 5.496)" fill="#26201f"/>
    <path id="Path_220" data-name="Path 220" d="M1070.735,74.4a2.635,2.635,0,0,1-2.73,2.828,2.571,2.571,0,0,1-2.665-2.741,2.624,2.624,0,0,1,2.752-2.816,2.552,2.552,0,0,1,2.642,2.729m-4.007.055c0,1.026.5,1.8,1.322,1.8.761,0,1.3-.754,1.3-1.823,0-.83-.374-1.78-1.29-1.78-.952,0-1.33.917-1.33,1.8" transform="translate(83.201 5.597)" fill="#26201f"/>
    <path id="Path_221" data-name="Path 221" d="M1072.079,73.5c0-.72-.014-1.233-.044-1.714h1.168l.044,1.016h.043a1.584,1.584,0,0,1,1.453-1.135,1.334,1.334,0,0,1,.313.032v1.267a1.844,1.844,0,0,0-.391-.044,1.189,1.189,0,0,0-1.2,1.016,2.87,2.87,0,0,0-.039.415V77.1h-1.343Z" transform="translate(83.724 5.597)" fill="#26201f"/>
    <path id="Path_222" data-name="Path 222" d="M1076.347,75.871a2.994,2.994,0,0,0,1.365.382c.591,0,.851-.239.851-.589s-.216-.547-.872-.775c-1.039-.36-1.476-.929-1.462-1.55a1.779,1.779,0,0,1,2.007-1.671,3.125,3.125,0,0,1,1.409.317l-.264.95a2.378,2.378,0,0,0-1.122-.306c-.48,0-.745.23-.745.557s.251.5.929.742c.961.349,1.409.841,1.419,1.627,0,.962-.754,1.66-2.163,1.66a3.451,3.451,0,0,1-1.616-.371Z" transform="translate(84.04 5.597)" fill="#26201f"/>
    <path id="Path_223" data-name="Path 223" d="M1083.538,77.689l2.664-7.916h.938l-2.664,7.916Z" transform="translate(84.623 5.449)" fill="#26201f"/>
    <path id="Path_224" data-name="Path 224" d="M1091.972,77.243l-1.8-7.359h1.432l.7,3.341c.185.9.361,1.834.48,2.566h.023c.119-.775.326-1.648.533-2.577l.8-3.33h1.41l.73,3.385c.185.873.339,1.692.45,2.489h.023c.131-.809.3-1.649.5-2.544l.762-3.33h1.365l-1.973,7.359h-1.445l-.761-3.461a21.279,21.279,0,0,1-.405-2.337h-.022c-.133.787-.273,1.5-.49,2.337l-.854,3.461Z" transform="translate(85.141 5.458)" fill="#26201f"/>
    <path id="Path_225" data-name="Path 225" d="M1100.13,69.52h1.351v3.166h.021a1.924,1.924,0,0,1,1.587-.852c.9,0,1.853.6,1.853,2.3v3.134H1103.6V74.292c0-.775-.282-1.354-1.027-1.354a1.1,1.1,0,0,0-1.039.754,1.252,1.252,0,0,0-.053.4v3.178h-1.351Z" transform="translate(85.918 5.429)" fill="#26201f"/>
    <path id="Path_226" data-name="Path 226" d="M1107.6,74.823a1.449,1.449,0,0,0,1.64,1.376,4.02,4.02,0,0,0,1.475-.24l.193.928a5,5,0,0,1-1.853.328,2.514,2.514,0,0,1-2.739-2.686,2.631,2.631,0,0,1,2.6-2.861,2.312,2.312,0,0,1,2.29,2.587,3.218,3.218,0,0,1-.044.568Zm2.34-.939a1.144,1.144,0,0,0-1.105-1.3,1.314,1.314,0,0,0-1.234,1.3Z" transform="translate(86.402 5.597)" fill="#26201f"/>
    <path id="Path_227" data-name="Path 227" d="M1113.539,74.823a1.445,1.445,0,0,0,1.639,1.376,4.011,4.011,0,0,0,1.475-.24l.194.928a5.008,5.008,0,0,1-1.854.328,2.518,2.518,0,0,1-2.744-2.686,2.635,2.635,0,0,1,2.6-2.861,2.311,2.311,0,0,1,2.29,2.587,3.218,3.218,0,0,1-.044.568Zm2.338-.939a1.144,1.144,0,0,0-1.105-1.3,1.314,1.314,0,0,0-1.233,1.3Z" transform="translate(86.865 5.597)" fill="#26201f"/>
    <rect id="Rectangle_86" data-name="Rectangle 86" width="1.353" height="7.753" transform="translate(1205.852 74.948)" fill="#26201f"/>
    <path id="Path_228" data-name="Path 228" d="M1126.349,69.885h1.342v6.235h3.026v1.124h-4.368Z" transform="translate(87.966 5.458)" fill="#26201f"/>
    <path id="Path_229" data-name="Path 229" d="M1136.972,74.4a2.636,2.636,0,0,1-2.731,2.828,2.57,2.57,0,0,1-2.664-2.741,2.624,2.624,0,0,1,2.752-2.816,2.552,2.552,0,0,1,2.642,2.729m-4.007.055c0,1.026.5,1.8,1.321,1.8.762,0,1.3-.754,1.3-1.823,0-.83-.374-1.78-1.289-1.78-.952,0-1.33.917-1.33,1.8" transform="translate(88.374 5.597)" fill="#26201f"/>
    <path id="Path_230" data-name="Path 230" d="M1141.33,77.1l-.087-.589h-.031a1.982,1.982,0,0,1-1.572.709,1.581,1.581,0,0,1-1.674-1.584c0-1.342,1.193-2.019,3.158-2.008v-.087c0-.349-.14-.928-1.083-.928a2.789,2.789,0,0,0-1.427.394l-.264-.874a3.842,3.842,0,0,1,1.92-.469,1.99,1.99,0,0,1,2.2,2.238v1.921a8.769,8.769,0,0,0,.075,1.278Zm-.176-2.6c-.946-.022-1.854.185-1.854.994a.7.7,0,0,0,.762.764,1.083,1.083,0,0,0,1.048-.732.886.886,0,0,0,.044-.294Z" transform="translate(88.873 5.597)" fill="#26201f"/>
    <path id="Path_231" data-name="Path 231" d="M1149.093,69.52v6.256c0,.546.022,1.135.044,1.5h-1.2l-.054-.841h-.023a1.911,1.911,0,0,1-1.735.962,2.436,2.436,0,0,1-2.273-2.719,2.526,2.526,0,0,1,2.378-2.839,1.7,1.7,0,0,1,1.5.7h.022V69.52Zm-1.343,4.651a1.909,1.909,0,0,0-.031-.349,1.179,1.179,0,0,0-1.158-.95c-.864,0-1.344.764-1.344,1.757,0,.971.481,1.682,1.33,1.682a1.186,1.186,0,0,0,1.159-.95,1.43,1.43,0,0,0,.044-.392Z" transform="translate(89.333 5.429)" fill="#26201f"/>
    <path id="Path_232" data-name="Path 232" d="M1151.734,74.823a1.441,1.441,0,0,0,1.633,1.376,3.992,3.992,0,0,0,1.476-.24l.2.928a5.014,5.014,0,0,1-1.859.328,2.516,2.516,0,0,1-2.739-2.686,2.632,2.632,0,0,1,2.6-2.861,2.312,2.312,0,0,1,2.294,2.587,3.35,3.35,0,0,1-.043.568Zm2.334-.939a1.141,1.141,0,0,0-1.1-1.3,1.31,1.31,0,0,0-1.233,1.3Z" transform="translate(89.848 5.597)" fill="#26201f"/>
    <path id="Path_233" data-name="Path 233" d="M1156.7,73.5c0-.72-.013-1.233-.044-1.714h1.168l.043,1.016h.044a1.588,1.588,0,0,1,1.453-1.135,1.407,1.407,0,0,1,.318.032v1.267a1.909,1.909,0,0,0-.4-.044,1.181,1.181,0,0,0-1.2,1.016,2.231,2.231,0,0,0-.044.415V77.1H1156.7Z" transform="translate(90.333 5.597)" fill="#26201f"/>
    <path id="Path_234" data-name="Path 234" d="M1160.965,75.871a3.01,3.01,0,0,0,1.365.382c.591,0,.85-.239.85-.589s-.216-.547-.872-.775c-1.035-.36-1.475-.929-1.462-1.55a1.779,1.779,0,0,1,2.008-1.671,3.132,3.132,0,0,1,1.409.317l-.264.95a2.372,2.372,0,0,0-1.123-.306c-.48,0-.744.23-.744.557s.25.5.929.742c.959.349,1.409.841,1.418,1.627,0,.962-.754,1.66-2.157,1.66a3.43,3.43,0,0,1-1.617-.371Z" transform="translate(90.649 5.597)" fill="#26201f"/>
  </g>
</svg>
