<svg xmlns="http://www.w3.org/2000/svg" width="28.366" height="28.366" viewBox="0 0 28.366 28.366">
  <g id="Group_3493" data-name="Group 3493" transform="translate(-410.874)">
    <path id="Path_100" data-name="Path 100" d="M425.057,0h0A14.183,14.183,0,1,0,439.24,14.183,14.183,14.183,0,0,0,425.057,0m7.331,17.863c-1.265,1.744-5.236,4.106-7.092,5.168-.674.386-.912.217-.681-.534l.274-.982a.329.329,0,0,0-.3-.418c-4.612-.2-8.277-3.316-8.277-7.132,0-3.945,3.917-7.143,8.748-7.143s8.748,3.2,8.748,7.143a6.212,6.212,0,0,1-1.417,3.9" fill="#ecb51d"/>
    <path id="Path_101" data-name="Path 101" d="M420.5,11.946h-1.039v4.039h2.582v-.9H420.5Z" fill="#ecb51d"/>
    <path id="Path_102" data-name="Path 102" d="M428.018,15.985h2.536v-.878h-1.5v-.763h1.5v-.872h-1.5v-.648h1.5v-.878h-2.536Z" fill="#ecb51d"/>
    <path id="Path_103" data-name="Path 103" d="M426.452,14.154c-.121-.209-.294-.508-.428-.746l-.828-1.462h-1.15v4.039h.964V13.527c.145.264.364.662.508.92l.851,1.538h1.047V11.946h-.964Z" fill="#ecb51d"/>
    <rect id="Rectangle_19" data-name="Rectangle 19" width="1.039" height="4.039" transform="translate(422.405 11.946)" fill="#ecb51d"/>
  </g>
</svg>
