<svg xmlns="http://www.w3.org/2000/svg" width="28.366" height="28.366" viewBox="0 0 28.366 28.366">
  <g id="Group_3492" data-name="Group 3492" transform="translate(-366.165)">
    <path id="Path_97" data-name="Path 97" d="M380.348,0h0a14.183,14.183,0,1,0,14.183,14.183A14.183,14.183,0,0,0,380.348,0M385.7,14.47l-1.835,2.839q-.546.842-1.016,1.727a23.544,23.544,0,0,0-1.675,4l-.037.117a.824.824,0,0,1-1.573,0c-.064-.209-.132-.418-.2-.625a23.574,23.574,0,0,0-2.235-4.774c-.11-.178-.22-.355-.334-.53l-1.787-2.745a6.44,6.44,0,0,1-.555-1.058,6.369,6.369,0,0,1,1.368-6.9.228.228,0,0,0,.022-.022,6.365,6.365,0,0,1,9.005,0l.01.011a6.364,6.364,0,0,1,.845,7.96" fill="#ecb51d"/>
    <path id="Path_98" data-name="Path 98" d="M380.347,13.5a2.482,2.482,0,1,0-1.6-4.379l-.167.166-.132.133a2.481,2.481,0,0,0,1.9,4.08" fill="#ecb51d"/>
  </g>
</svg>
