<svg xmlns="http://www.w3.org/2000/svg" width="276.759" height="65.293" viewBox="0 0 276.759 65.293">
  <g id="Group_3485" data-name="Group 3485" transform="translate(-328.578 -22.776)">
    <path id="Path_193" data-name="Path 193" d="M423,35.021l-32.6-.061c-7.262,1.118-11.741,6.413-11.87,13.14a7.393,7.393,0,0,0,.089.939c.755,6.27,5.793,11.77,12.357,11.919l20.721-.194c1.031.132,1.688.635,1.7,1.7.016.7-.438,1.189-1.623,1.507H380.059l.066,11.425H413.7A12.714,12.714,0,0,0,424.506,60.91c-.8-6.226-5.048-10.342-11.2-11.374l-21.55.065a1.591,1.591,0,0,1-1.736-1.518c-.074-1.069.673-1.494,1.662-1.624l31.449.064Z" transform="translate(29.562 2.73)" fill="#d02028"/>
    <path id="Path_194" data-name="Path 194" d="M442.331,58.286l4.462-10.833L451.2,58.286Zm11.562-23.2-14.2-.067L420.716,75.423l14.263.118,2.816-6.848h17.874l2.872,6.792,14.207-.061Z" transform="translate(32.857 2.735)" fill="#d02028"/>
    <path id="Path_195" data-name="Path 195" d="M485.03,35.1l-14.053-.057-.065,40.346h10.742V48.5l18.807,26.892h13.867l.065-40.289H503.545l.236,26.837Z" transform="translate(36.778 2.737)" fill="#d02028"/>
    <path id="Path_196" data-name="Path 196" d="M526.773,35.055H512.906l19.124,26.474V75.474H545.9l-.058-14.011,19.44-26.347L551.2,35.055,539,52.128Z" transform="translate(40.057 2.738)" fill="#d02028"/>
    <path id="Path_197" data-name="Path 197" d="M307.971,71.043l17.752-5.337a.528.528,0,0,0,.358-.527.543.543,0,0,0-.439-.53L323,64.19l-.114-.041a.361.361,0,0,1-.106-.546L333,51.894a3.691,3.691,0,0,1,4.17-1.564l-3.813-11.675L307.005,69.38a1.018,1.018,0,0,0-.138,1.209,1.044,1.044,0,0,0,1.1.455" transform="translate(23.955 3.019)" fill="#d02028"/>
    <path id="Path_198" data-name="Path 198" d="M333.409,21.836l-4.261,18.048a.546.546,0,0,0,.95.456l1.728-2.054.089-.072a.366.366,0,0,1,.527.179l5.136,15.218a3.541,3.541,0,0,1-1.12,4.168l12.269,2.329L335.34,21.844a1.008,1.008,0,0,0-.974-.717,1.026,1.026,0,0,0-.957.709" transform="translate(25.705 1.65)" fill="#d02028"/>
    <path id="Path_199" data-name="Path 199" d="M364.092,68.231,350.559,55.536a.548.548,0,0,0-.876.6l.924,2.518.016.109a.37.37,0,0,1-.422.373l-15.756-3.146A3.57,3.57,0,0,1,331.378,53l-8.13,9.4,39.879,7.484a1,1,0,0,0,1.11-.483,1.027,1.027,0,0,0-.146-1.173" transform="translate(25.245 4.14)" fill="#d02028"/>
    <path id="Path_200" data-name="Path 200" d="M362.663,67.261c4.633-10.276,2.783-22.679-3.928-31.606a31.3,31.3,0,0,0-21.1-11.978.65.65,0,0,0-.251,1.275c18.117,4.886,28.819,20.5,24.057,41.883a.628.628,0,0,0,.4.868c.373.108.608.028.819-.443" transform="translate(26.309 1.849)" fill="#d02028"/>
    <path id="Path_201" data-name="Path 201" d="M310.711,70.105c6.6,9.129,18.3,13.712,29.4,12.345a30.882,30.882,0,0,0,20.8-12.189c.389-.546.146-.96-.187-1.09a.677.677,0,0,0-.836.346c-13.29,13.249-32.032,14.513-48.2-.274a.654.654,0,0,0-.893-.254c-.3.183-.446.617-.073,1.116" transform="translate(24.249 5.381)" fill="#d02028"/>
    <path id="Path_202" data-name="Path 202" d="M332.74,23.623c-11.221,1.226-21.371,9.149-25.663,19.465a30.682,30.682,0,0,0,.308,24.042.63.63,0,0,0,1.152.015.683.683,0,0,0-.025-.56c-4.973-18.22,3.594-35.067,24.454-41.69a.647.647,0,0,0-.227-1.272" transform="translate(23.802 1.845)" fill="#d02028"/>
  </g>
</svg>
