<svg xmlns="http://www.w3.org/2000/svg" width="17.859" height="17.859" viewBox="0 0 17.859 17.859">
  <g id="Group_3493" data-name="Group 3493" transform="translate(-173 -6.049)">
    <path id="Path_105" data-name="Path 105" d="M173,12.92c.032-.252.054-.506.1-.756a7.078,7.078,0,0,1,4.668-5.671,6.48,6.48,0,0,1,1.985-.419.8.8,0,0,0,.118-.025h.732a1.359,1.359,0,0,0,.153.026,6.83,6.83,0,0,1,2.31.548A7.172,7.172,0,0,1,187,10.673a6.832,6.832,0,0,1,.421,3.457,7.161,7.161,0,0,1-.9,2.671c-.161.281-.146.351.08.577l3.515,3.514a2.461,2.461,0,0,1,.719,1.266,1.53,1.53,0,0,1-1.725,1.725,2.461,2.461,0,0,1-1.266-.719l-3.477-3.477c-.274-.274-.325-.285-.663-.094a7.141,7.141,0,0,1-2.9.906,6.712,6.712,0,0,1-3.72-.687,7.12,7.12,0,0,1-4.016-5.61c-.026-.183-.044-.366-.066-.55Zm7.253,5.721a5.349,5.349,0,1,0-5.364-5.348,5.345,5.345,0,0,0,5.364,5.348" fill="#ecb51d"/>
    <path id="Path_106" data-name="Path 106" d="M179.972,8.95a4.791,4.791,0,0,0-1.868.367.741.741,0,0,0-.424.961.733.733,0,0,0,.942.432,3.422,3.422,0,0,1,1.462-.258,3.179,3.179,0,0,1,2.717,1.791,1.683,1.683,0,0,0,.235.382.731.731,0,0,0,.952.1.749.749,0,0,0,.254-.927,4.56,4.56,0,0,0-1.037-1.512,4.7,4.7,0,0,0-3.233-1.339" fill="#ecb51d"/>
  </g>
</svg>
