<svg xmlns="http://www.w3.org/2000/svg" width="16.787" height="18.013" viewBox="0 0 16.787 18.013">
  <path id="Path_80" data-name="Path 80" d="M3.887,0A2.633,2.633,0,0,1,5.25,1.182c.391.6.768,1.206,1.11,1.832a2.186,2.186,0,0,1,.278,1.508,1.541,1.541,0,0,1-.481.86,11.4,11.4,0,0,1-1.077.9,1.515,1.515,0,0,0-.574,1.973,6.927,6.927,0,0,0,1.2,2.013A13.982,13.982,0,0,0,7.823,12.5a3.666,3.666,0,0,0,1.478.817,1.33,1.33,0,0,0,1.291-.363c.366-.347.727-.7,1.112-1.024a1.715,1.715,0,0,1,2.032-.184,4.019,4.019,0,0,1,.674.411,10.629,10.629,0,0,1,2.056,1.907,1.2,1.2,0,0,1-.15,1.77,10.427,10.427,0,0,1-1.707,1.4,5.644,5.644,0,0,1-3.637.727A8.532,8.532,0,0,1,7.23,16.447a19.046,19.046,0,0,1-3.918-3.689A16.772,16.772,0,0,1,.737,8.728,8.074,8.074,0,0,1,0,5.513,5.533,5.533,0,0,1,2.132.955c.215-.172.4-.379.629-.535A8.235,8.235,0,0,1,3.5,0Z" transform="translate(0)" fill="#ecb51d"/>
</svg>
