<svg xmlns="http://www.w3.org/2000/svg" width="28.311" height="28.311" viewBox="0 0 28.311 28.311">
  <g id="Group_3491" data-name="Group 3491" transform="translate(-319.505)">
    <path id="Path_82" data-name="Path 82" d="M331.461,16.959l5.349-2.8-5.349-2.8Z" fill="#ecb51d"/>
    <path id="Path_83" data-name="Path 83" d="M333.661,0h0a14.156,14.156,0,0,0,0,28.311h0a14.156,14.156,0,0,0,0-28.311m8.4,17.785-.011.082a2.572,2.572,0,0,1-2.475,2.106,97.557,97.557,0,0,1-10.883.035l-.931-.048a2.574,2.574,0,0,1-2.493-2.107l-.01-.068a26.349,26.349,0,0,1,0-7.26l.01-.067a2.572,2.572,0,0,1,2.493-2.107l.931-.049a98.04,98.04,0,0,1,10.883.035,2.573,2.573,0,0,1,2.475,2.106c0,.027.007.055.011.082a26.271,26.271,0,0,1,0,7.26" fill="#ecb51d"/>
  </g>
</svg>
