<svg xmlns="http://www.w3.org/2000/svg" width="347.313" height="348.25" viewBox="0 0 347.313 348.25">
  <g id="Group_3488" data-name="Group 3488" transform="translate(-853.455 -162.923)">
    <rect id="Rectangle_108" data-name="Rectangle 108" width="347.313" height="348.249" transform="translate(853.455 162.924)" fill="#ecb51d"/>
    <path id="Path_268" data-name="Path 268" d="M853.455,509.136v2.036h347.313V162.923h-1.1Z" fill="#f6c752"/>
    <path id="Path_269" data-name="Path 269" d="M973.983,380.476a24.524,24.524,0,1,1,24.524-24.524,24.551,24.551,0,0,1-24.524,24.524m0-42.349a17.825,17.825,0,1,0,17.825,17.825,17.845,17.845,0,0,0-17.825-17.825" fill="#fff"/>
    <path id="Path_270" data-name="Path 270" d="M935.277,444.068a3.489,3.489,0,0,1-.487-.035,3.35,3.35,0,0,1-2.832-3.8l4.249-29.14c.059-.381.12-.732.187-1.079a27.9,27.9,0,0,1,27.526-22.343h20.36a27.9,27.9,0,0,1,27.526,22.343c.067.347.128.7.182,1.05l4.022,27.863a3.35,3.35,0,0,1-6.631.957l-4.016-27.829c-.037-.236-.084-.5-.135-.77a21.186,21.186,0,0,0-20.948-16.915H963.92a21.186,21.186,0,0,0-20.948,16.915c-.052.266-.1.534-.14.8l-4.245,29.11a3.35,3.35,0,0,1-3.31,2.867" fill="#fff"/>
    <path id="Path_271" data-name="Path 271" d="M1078.939,380.281a24.524,24.524,0,1,1,24.524-24.524,24.552,24.552,0,0,1-24.524,24.524m0-42.349a17.825,17.825,0,1,0,17.825,17.825,17.845,17.845,0,0,0-17.825-17.825" fill="#fff"/>
    <path id="Path_272" data-name="Path 272" d="M1040.233,443.873a3.507,3.507,0,0,1-.488-.035,3.35,3.35,0,0,1-2.832-3.8l4.249-29.14c.059-.38.12-.731.187-1.079a27.893,27.893,0,0,1,27.526-22.343h20.359a27.894,27.894,0,0,1,27.527,22.343c.067.347.127.7.182,1.047l4.022,27.866a3.35,3.35,0,0,1-6.631.957l-4.016-27.829c-.037-.234-.084-.5-.135-.77a21.186,21.186,0,0,0-20.949-16.915h-20.359a21.185,21.185,0,0,0-20.948,16.915c-.051.265-.1.533-.14.8l-4.245,29.112a3.351,3.351,0,0,1-3.309,2.867" fill="#fff"/>
    <path id="Path_273" data-name="Path 273" d="M1032.071,331.691a3.352,3.352,0,0,1-3.252-4.165l.05-.2a43.176,43.176,0,0,1,15.012-23.461,27.167,27.167,0,1,0-33.864-.274c7.5,6.082,14.907,22.687,15.219,23.391a3.35,3.35,0,0,1-6.125,2.714c-1.946-4.388-8.131-16.7-13.315-20.9a33.867,33.867,0,1,1,42.222.341,36.447,36.447,0,0,0-12.65,19.818l-.05.2a3.351,3.351,0,0,1-3.247,2.536" fill="#fff"/>
    <path id="Path_274" data-name="Path 274" d="M1030.862,339.69h-7.482a3.35,3.35,0,0,1,0-6.7h7.482a3.35,3.35,0,1,1,0,6.7" fill="#fff"/>
    <path id="Path_275" data-name="Path 275" d="M1030.862,347.912h-7.482a3.349,3.349,0,0,1,0-6.7h7.482a3.349,3.349,0,1,1,0,6.7" fill="#fff"/>
    <path id="Path_276" data-name="Path 276" d="M1027.306,239.458a3.35,3.35,0,0,1-3.35-3.35v-7.627a3.35,3.35,0,1,1,6.7,0v7.627a3.35,3.35,0,0,1-3.35,3.35" fill="#fff"/>
    <path id="Path_277" data-name="Path 277" d="M976.2,290.561h-7.627a3.35,3.35,0,1,1,0-6.7H976.2a3.35,3.35,0,1,1,0,6.7" fill="#fff"/>
    <path id="Path_278" data-name="Path 278" d="M1086.036,290.561h-7.627a3.35,3.35,0,1,1,0-6.7h7.627a3.35,3.35,0,1,1,0,6.7" fill="#fff"/>
    <path id="Path_279" data-name="Path 279" d="M991.17,254.426a3.341,3.341,0,0,1-2.369-.981l-5.393-5.394a3.349,3.349,0,1,1,4.737-4.736l5.394,5.393a3.349,3.349,0,0,1-2.369,5.718" fill="#fff"/>
    <path id="Path_280" data-name="Path 280" d="M1063.441,254.426a3.349,3.349,0,0,1-2.369-5.718l5.394-5.394a3.35,3.35,0,0,1,4.737,4.738l-5.393,5.393a3.341,3.341,0,0,1-2.369.981" fill="#fff"/>
  </g>
</svg>
