<svg xmlns="http://www.w3.org/2000/svg" xmlns:xlink="http://www.w3.org/1999/xlink" width="313" height="54.143" viewBox="0 0 313 54.143">
  <defs>
    <clipPath id="clip-path">
      <rect id="Rectangle_2" data-name="Rectangle 2" width="313" height="54.143" transform="translate(0 0)" fill="none"/>
    </clipPath>
  </defs>
  <g id="Group_3" data-name="Group 3" transform="translate(0 0)">
    <path id="Path_1" data-name="Path 1" d="M17.628,22.156l9.1-19.424h-7.3L8.269,26.565H38.217l2.263-4.409Z" fill="#211e1f"/>
    <line id="Line_1" data-name="Line 1" x1="1.901" y1="23.833" transform="translate(178.112 3.033)" fill="#211e1f"/>
    <path id="Path_2" data-name="Path 2" d="M116.931,26.866H125.3L118.238,3.033H109.47L79.9,26.866h8.373l8.583-6.92h18.028ZM101.7,16.041l9.7-7.819,2.316,7.819Z" fill="#211e1f"/>
    <path id="Path_3" data-name="Path 3" d="M303.071,3.034l-17.82,9.244-7.612-9.244h-8.8l11.127,13.439L274.9,26.867h8.371l5.225-10.715L313,3.034Z" fill="#211e1f"/>
    <path id="Path_4" data-name="Path 4" d="M262.4,26.866h8.373L263.7,3.033h-8.77L225.362,26.866h8.374l8.585-6.92h18.028ZM247.169,16.041l9.7-7.819,2.319,7.819Z" fill="#211e1f"/>
    <path id="Path_5" data-name="Path 5" d="M84.508,6.967,86.2,3.06H61.9l.013-.026h-7.3L43.454,26.867H75.133l1.942-4.412H52.811l3.221-6.871H78.9l1.94-4.41H58.095l1.988-4.207Z" fill="#211e1f"/>
    <g id="Group_2" data-name="Group 2">
      <g id="Group_1" data-name="Group 1" clip-path="url(#clip-path)">
        <path id="Path_6" data-name="Path 6" d="M158.83,2.907H140.7l.071.126h-1.1L128.514,26.866h19.793c9.508,0,25.988-5.831,27.889-13.438,1.471-5.878-4.309-10.521-17.366-10.521m8.747,10.459c-1.338,5.076-10.205,8.709-17.049,8.709H138.591L145.824,6.63H155.6c9.175,0,13.011,2.814,11.981,6.736" fill="#211e1f"/>
        <path id="Path_7" data-name="Path 7" d="M232.9,3.034,215.429,20.247,214.055,3.034h-8.373L187.811,19.685,186.484,3.034h-8.373l1.9,23.833h8.373l-.008-.107L207.45,8.986l1.417,17.727-.156.154h8.157l24.19-23.833Z" fill="#211e1f"/>
        <path id="Path_8" data-name="Path 8" d="M302.2,39.8l2.536-4.309H2.016L.241,40.817,22.3,54.143s14.627-4.682,38.363-6.524S186.335,40.563,302.2,39.8" fill="#211e1f"/>
        <path id="Path_9" data-name="Path 9" d="M15.489,19.421,24.585,0h-7.3L6.129,23.83H36.078l2.263-4.409Z" fill="#ecb51d"/>
        <line id="Line_2" data-name="Line 2" x1="1.901" y1="23.833" transform="translate(175.973 0.3)" fill="#c78528"/>
        <path id="Path_10" data-name="Path 10" d="M114.792,24.132h8.373L116.1.3h-8.768L77.759,24.132h8.373l8.583-6.92h18.028ZM99.563,13.307l9.7-7.819,2.316,7.819Z" fill="#ecb51d"/>
        <path id="Path_11" data-name="Path 11" d="M310.861.3h-9.928l-17.82,9.242L275.5.3h-8.8l11.128,13.439-5.066,10.394h8.371l5.224-10.715Z" fill="#ecb51d"/>
        <path id="Path_12" data-name="Path 12" d="M260.257,24.132h8.373L261.567.3H252.8L223.224,24.132H231.6l8.583-6.92h18.028ZM245.028,13.307l9.7-7.819,2.319,7.819Z" fill="#ecb51d"/>
        <path id="Path_13" data-name="Path 13" d="M82.366,4.234,84.056.327h-24.3L59.77.3H52.476L41.315,24.134H72.991l1.945-4.412H50.672l3.221-6.871H76.759L78.7,8.441H55.955l1.988-4.207Z" fill="#ecb51d"/>
        <path id="Path_14" data-name="Path 14" d="M156.691.172H138.564l.071.128h-1.1L126.375,24.134h19.793c9.508,0,25.988-5.832,27.889-13.439C175.528,4.815,169.748.172,156.691.172m8.747,10.459c-1.335,5.076-10.205,8.709-17.051,8.709H136.452l7.233-15.445h9.772c9.173,0,13.011,2.816,11.981,6.736" fill="#ecb51d"/>
        <path id="Path_15" data-name="Path 15" d="M230.76.3,213.289,17.513,211.915.3h-8.37L185.671,16.951,184.344.3h-8.373l1.9,23.833h8.373l-.008-.11L205.31,6.252l1.417,17.725-.154.156h8.153L238.918.3Z" fill="#ecb51d"/>
        <path id="Path_16" data-name="Path 16" d="M301.961,36.181l2.534-4.309H1.776L0,37.2,22.055,50.519S36.683,45.84,60.419,44,186.1,36.939,301.961,36.181" fill="#ec1c24"/>
        <path id="Path_17" data-name="Path 17" d="M169.291,43.774h.644l-.79,6.931h2.771l-.073.608h-3.421Z"/>
        <path id="Path_18" data-name="Path 18" d="M169.291,43.774h.644l-.79,6.931h2.771l-.073.608h-3.421Z"/>
        <path id="Path_19" data-name="Path 19" d="M169.291,43.774h.644l-.79,6.931h2.771l-.073.608h-3.421Z" fill="none" stroke="#211e1f" stroke-width="0.019"/>
        <path id="Path_20" data-name="Path 20" d="M177.4,49.063h-4.23a1.828,1.828,0,0,0,.441,1.329,1.576,1.576,0,0,0,1.209.482,2.1,2.1,0,0,0,.929-.2,1.957,1.957,0,0,0,.707-.574l.451.37a2.459,2.459,0,0,1-.9.705,2.776,2.776,0,0,1-1.2.264,2.041,2.041,0,0,1-1.677-.692,2.423,2.423,0,0,1-.562-1.555,2.761,2.761,0,0,1,2.759-2.743,2.013,2.013,0,0,1,1.508.618,2.17,2.17,0,0,1,.6,1.572,3.6,3.6,0,0,1-.032.427m-.558-.532a1.529,1.529,0,0,0-.457-1.085,1.507,1.507,0,0,0-1.088-.415,2.046,2.046,0,0,0-1.25.4,2.125,2.125,0,0,0-.77,1.1Z"/>
        <path id="Path_21" data-name="Path 21" d="M177.4,49.063h-4.23a1.828,1.828,0,0,0,.441,1.329,1.576,1.576,0,0,0,1.209.482,2.1,2.1,0,0,0,.929-.2,1.957,1.957,0,0,0,.707-.574l.451.37a2.459,2.459,0,0,1-.9.705,2.776,2.776,0,0,1-1.2.264,2.041,2.041,0,0,1-1.677-.692,2.423,2.423,0,0,1-.562-1.555,2.761,2.761,0,0,1,2.759-2.743,2.013,2.013,0,0,1,1.508.618,2.17,2.17,0,0,1,.6,1.572,3.6,3.6,0,0,1-.032.427m-.558-.532a1.529,1.529,0,0,0-.457-1.085,1.507,1.507,0,0,0-1.088-.415,2.046,2.046,0,0,0-1.25.4,2.125,2.125,0,0,0-.77,1.1Z"/>
        <path id="Path_22" data-name="Path 22" d="M177.4,49.063h-4.23a1.828,1.828,0,0,0,.441,1.329,1.576,1.576,0,0,0,1.209.482,2.1,2.1,0,0,0,.929-.2,1.957,1.957,0,0,0,.707-.574l.451.37a2.459,2.459,0,0,1-.9.705,2.776,2.776,0,0,1-1.2.264,2.041,2.041,0,0,1-1.677-.692,2.423,2.423,0,0,1-.562-1.555,2.761,2.761,0,0,1,2.759-2.743,2.013,2.013,0,0,1,1.508.618,2.17,2.17,0,0,1,.6,1.572A3.6,3.6,0,0,1,177.4,49.063Zm-.558-.532a1.529,1.529,0,0,0-.457-1.085,1.507,1.507,0,0,0-1.088-.415,2.046,2.046,0,0,0-1.25.4,2.125,2.125,0,0,0-.77,1.1Z" fill="none" stroke="#211e1f" stroke-width="0.019"/>
        <path id="Path_23" data-name="Path 23" d="M183,51.312h-.616l.092-.712a2.575,2.575,0,0,1-1.879.835,2.157,2.157,0,0,1-1.587-.621,2.183,2.183,0,0,1-.621-1.608,2.66,2.66,0,0,1,.809-1.947,2.611,2.611,0,0,1,1.9-.811,2.119,2.119,0,0,1,1.041.245,2,2,0,0,1,.752.778l.109-.9h.637Zm-2.338-.436a2.107,2.107,0,0,0,1.07-.276,2.007,2.007,0,0,0,.764-.8,2.338,2.338,0,0,0,.285-1.13,1.616,1.616,0,0,0-.467-1.2,1.637,1.637,0,0,0-1.208-.462,2.018,2.018,0,0,0-1.493.631,2.121,2.121,0,0,0-.624,1.553,1.593,1.593,0,0,0,1.673,1.678"/>
        <path id="Path_24" data-name="Path 24" d="M183,51.312h-.616l.092-.712a2.575,2.575,0,0,1-1.879.835,2.157,2.157,0,0,1-1.587-.621,2.183,2.183,0,0,1-.621-1.608,2.66,2.66,0,0,1,.809-1.947,2.611,2.611,0,0,1,1.9-.811,2.119,2.119,0,0,1,1.041.245,2,2,0,0,1,.752.778l.109-.9h.637Zm-2.338-.436a2.107,2.107,0,0,0,1.07-.276,2.007,2.007,0,0,0,.764-.8,2.338,2.338,0,0,0,.285-1.13,1.616,1.616,0,0,0-.467-1.2,1.637,1.637,0,0,0-1.208-.462,2.018,2.018,0,0,0-1.493.631,2.121,2.121,0,0,0-.624,1.553,1.593,1.593,0,0,0,1.673,1.678"/>
        <path id="Path_25" data-name="Path 25" d="M183,51.312h-.616l.092-.712a2.575,2.575,0,0,1-1.879.835,2.157,2.157,0,0,1-1.587-.621,2.183,2.183,0,0,1-.621-1.608,2.66,2.66,0,0,1,.809-1.947,2.611,2.611,0,0,1,1.9-.811,2.119,2.119,0,0,1,1.041.245,2,2,0,0,1,.752.778l.109-.9h.637Zm-2.338-.436a2.107,2.107,0,0,0,1.07-.276,2.007,2.007,0,0,0,.764-.8,2.338,2.338,0,0,0,.285-1.13,1.616,1.616,0,0,0-.467-1.2,1.637,1.637,0,0,0-1.208-.462,2.018,2.018,0,0,0-1.493.631,2.121,2.121,0,0,0-.624,1.553,1.593,1.593,0,0,0,1.673,1.678Z" fill="none" stroke="#211e1f" stroke-width="0.019"/>
        <path id="Path_26" data-name="Path 26" d="M189.111,51.312h-.618l.1-.733a2.6,2.6,0,0,1-1.9.856,2.145,2.145,0,0,1-1.579-.621,2.193,2.193,0,0,1-.618-1.608,2.66,2.66,0,0,1,.809-1.947,2.587,2.587,0,0,1,1.894-.811,1.95,1.95,0,0,1,1.8,1.023l.388-3.85h.635Zm-2.338-.436a2.131,2.131,0,0,0,1.07-.274,2.015,2.015,0,0,0,.765-.8,2.332,2.332,0,0,0,.284-1.128,1.627,1.627,0,0,0-.464-1.2,1.649,1.649,0,0,0-1.211-.462,2.021,2.021,0,0,0-1.5.631A2.135,2.135,0,0,0,185.1,49.2a1.594,1.594,0,0,0,1.678,1.678"/>
        <path id="Path_27" data-name="Path 27" d="M189.111,51.312h-.618l.1-.733a2.6,2.6,0,0,1-1.9.856,2.145,2.145,0,0,1-1.579-.621,2.193,2.193,0,0,1-.618-1.608,2.66,2.66,0,0,1,.809-1.947,2.587,2.587,0,0,1,1.894-.811,1.95,1.95,0,0,1,1.8,1.023l.388-3.85h.635Zm-2.338-.436a2.131,2.131,0,0,0,1.07-.274,2.015,2.015,0,0,0,.765-.8,2.332,2.332,0,0,0,.284-1.128,1.627,1.627,0,0,0-.464-1.2,1.649,1.649,0,0,0-1.211-.462,2.021,2.021,0,0,0-1.5.631A2.135,2.135,0,0,0,185.1,49.2a1.594,1.594,0,0,0,1.678,1.678"/>
        <path id="Path_28" data-name="Path 28" d="M189.111,51.312h-.618l.1-.733a2.6,2.6,0,0,1-1.9.856,2.145,2.145,0,0,1-1.579-.621,2.193,2.193,0,0,1-.618-1.608,2.66,2.66,0,0,1,.809-1.947,2.587,2.587,0,0,1,1.894-.811,1.95,1.95,0,0,1,1.8,1.023l.388-3.85h.635Zm-2.338-.436a2.131,2.131,0,0,0,1.07-.274,2.015,2.015,0,0,0,.765-.8,2.332,2.332,0,0,0,.284-1.128,1.627,1.627,0,0,0-.464-1.2,1.649,1.649,0,0,0-1.211-.462,2.021,2.021,0,0,0-1.5.631A2.135,2.135,0,0,0,185.1,49.2a1.594,1.594,0,0,0,1.678,1.678Z" fill="none" stroke="#211e1f" stroke-width="0.019"/>
        <path id="Path_29" data-name="Path 29" d="M190.869,46.567h.6l.978,3.351,1.788-3.351h.1l1.083,3.385,1.745-3.385h.655l-2.45,4.744h-.123l-1.1-3.348-1.788,3.348h-.114Z"/>
        <path id="Path_30" data-name="Path 30" d="M190.869,46.567h.6l.978,3.351,1.788-3.351h.1l1.083,3.385,1.745-3.385h.655l-2.45,4.744h-.123l-1.1-3.348-1.788,3.348h-.114Z"/>
        <path id="Path_31" data-name="Path 31" d="M190.869,46.567h.6l.978,3.351,1.788-3.351h.1l1.083,3.385,1.745-3.385h.655l-2.45,4.744h-.123l-1.1-3.348-1.788,3.348h-.114Z" fill="none" stroke="#211e1f" stroke-width="0.019"/>
        <path id="Path_32" data-name="Path 32" d="M202.965,51.312h-.616l.094-.712a2.581,2.581,0,0,1-1.882.835,2.162,2.162,0,0,1-1.587-.621,2.193,2.193,0,0,1-.618-1.608,2.666,2.666,0,0,1,.807-1.947,2.619,2.619,0,0,1,1.907-.811,2.135,2.135,0,0,1,1.041.245,2,2,0,0,1,.752.778l.109-.9h.635Zm-2.336-.436A2.1,2.1,0,0,0,201.7,50.6a2.014,2.014,0,0,0,.767-.8,2.358,2.358,0,0,0,.282-1.13,1.622,1.622,0,0,0-.464-1.2,1.645,1.645,0,0,0-1.208-.462,2.013,2.013,0,0,0-1.493.631,2.125,2.125,0,0,0-.624,1.553,1.591,1.591,0,0,0,1.673,1.678"/>
        <path id="Path_33" data-name="Path 33" d="M202.965,51.312h-.616l.094-.712a2.581,2.581,0,0,1-1.882.835,2.162,2.162,0,0,1-1.587-.621,2.193,2.193,0,0,1-.618-1.608,2.666,2.666,0,0,1,.807-1.947,2.619,2.619,0,0,1,1.907-.811,2.135,2.135,0,0,1,1.041.245,2,2,0,0,1,.752.778l.109-.9h.635Zm-2.336-.436A2.1,2.1,0,0,0,201.7,50.6a2.014,2.014,0,0,0,.767-.8,2.358,2.358,0,0,0,.282-1.13,1.622,1.622,0,0,0-.464-1.2,1.645,1.645,0,0,0-1.208-.462,2.013,2.013,0,0,0-1.493.631,2.125,2.125,0,0,0-.624,1.553,1.591,1.591,0,0,0,1.673,1.678"/>
        <path id="Path_34" data-name="Path 34" d="M202.965,51.312h-.616l.094-.712a2.581,2.581,0,0,1-1.882.835,2.162,2.162,0,0,1-1.587-.621,2.193,2.193,0,0,1-.618-1.608,2.666,2.666,0,0,1,.807-1.947,2.619,2.619,0,0,1,1.907-.811,2.135,2.135,0,0,1,1.041.245,2,2,0,0,1,.752.778l.109-.9h.635Zm-2.336-.436A2.1,2.1,0,0,0,201.7,50.6a2.014,2.014,0,0,0,.767-.8,2.358,2.358,0,0,0,.282-1.13,1.622,1.622,0,0,0-.464-1.2,1.645,1.645,0,0,0-1.208-.462,2.013,2.013,0,0,0-1.493.631,2.125,2.125,0,0,0-.624,1.553,1.591,1.591,0,0,0,1.673,1.678Z" fill="none" stroke="#211e1f" stroke-width="0.019"/>
        <path id="Path_35" data-name="Path 35" d="M204.857,46.567h.626l1.227,3.505,2.04-3.505h.682l-3.876,6.918h-.686l1.454-2.745Z"/>
        <path id="Path_36" data-name="Path 36" d="M204.857,46.567h.626l1.227,3.505,2.04-3.505h.682l-3.876,6.918h-.686l1.454-2.745Z"/>
        <path id="Path_37" data-name="Path 37" d="M204.857,46.567h.626l1.227,3.505,2.04-3.505h.682l-3.876,6.918h-.686l1.454-2.745Z" fill="none" stroke="#211e1f" stroke-width="0.019"/>
        <path id="Path_38" data-name="Path 38" d="M215.145,43.83h.736l-.407,3.043h3.841l.415-3.043h.728l-1.015,7.482h-.733l.511-3.732h-3.854l-.493,3.732h-.747Z"/>
        <path id="Path_39" data-name="Path 39" d="M215.145,43.83h.736l-.407,3.043h3.841l.415-3.043h.728l-1.015,7.482h-.733l.511-3.732h-3.854l-.493,3.732h-.747Z"/>
        <path id="Path_40" data-name="Path 40" d="M215.145,43.83h.736l-.407,3.043h3.841l.415-3.043h.728l-1.015,7.482h-.733l.511-3.732h-3.854l-.493,3.732h-.747Z" fill="none" stroke="#211e1f" stroke-width="0.022"/>
        <path id="Path_41" data-name="Path 41" d="M225.876,49.063h-4.23a1.817,1.817,0,0,0,.444,1.329,1.565,1.565,0,0,0,1.206.482,2.1,2.1,0,0,0,.929-.2,1.957,1.957,0,0,0,.707-.574l.451.37a2.465,2.465,0,0,1-.9.705,2.8,2.8,0,0,1-1.2.264,2.041,2.041,0,0,1-1.677-.692,2.422,2.422,0,0,1-.561-1.555,2.686,2.686,0,0,1,.378-1.362,2.731,2.731,0,0,1,2.38-1.381,2.013,2.013,0,0,1,1.508.618,2.17,2.17,0,0,1,.6,1.572,3.6,3.6,0,0,1-.032.427m-.558-.532a1.525,1.525,0,0,0-.457-1.085,1.5,1.5,0,0,0-1.085-.415,2.053,2.053,0,0,0-1.253.4,2.14,2.14,0,0,0-.772,1.1Z"/>
        <path id="Path_42" data-name="Path 42" d="M225.876,49.063h-4.23a1.817,1.817,0,0,0,.444,1.329,1.565,1.565,0,0,0,1.206.482,2.1,2.1,0,0,0,.929-.2,1.957,1.957,0,0,0,.707-.574l.451.37a2.465,2.465,0,0,1-.9.705,2.8,2.8,0,0,1-1.2.264,2.041,2.041,0,0,1-1.677-.692,2.422,2.422,0,0,1-.561-1.555,2.686,2.686,0,0,1,.378-1.362,2.731,2.731,0,0,1,2.38-1.381,2.013,2.013,0,0,1,1.508.618,2.17,2.17,0,0,1,.6,1.572,3.6,3.6,0,0,1-.032.427m-.558-.532a1.525,1.525,0,0,0-.457-1.085,1.5,1.5,0,0,0-1.085-.415,2.053,2.053,0,0,0-1.253.4,2.14,2.14,0,0,0-.772,1.1Z"/>
        <path id="Path_43" data-name="Path 43" d="M225.876,49.063h-4.23a1.817,1.817,0,0,0,.444,1.329,1.565,1.565,0,0,0,1.206.482,2.1,2.1,0,0,0,.929-.2,1.957,1.957,0,0,0,.707-.574l.451.37a2.465,2.465,0,0,1-.9.705,2.8,2.8,0,0,1-1.2.264,2.041,2.041,0,0,1-1.677-.692,2.422,2.422,0,0,1-.561-1.555,2.686,2.686,0,0,1,.378-1.362,2.731,2.731,0,0,1,2.38-1.381,2.013,2.013,0,0,1,1.508.618,2.17,2.17,0,0,1,.6,1.572A3.6,3.6,0,0,1,225.876,49.063Zm-.558-.532a1.525,1.525,0,0,0-.457-1.085,1.5,1.5,0,0,0-1.085-.415,2.053,2.053,0,0,0-1.253.4,2.14,2.14,0,0,0-.772,1.1Z" fill="none" stroke="#211e1f" stroke-width="0.019"/>
        <path id="Path_44" data-name="Path 44" d="M231.512,51.312h-.618l.094-.712a2.573,2.573,0,0,1-1.879.835,2.152,2.152,0,0,1-1.587-.621,2.183,2.183,0,0,1-.621-1.608,2.66,2.66,0,0,1,.809-1.947,2.611,2.611,0,0,1,1.9-.811,2.119,2.119,0,0,1,1.041.245,2,2,0,0,1,.752.778l.109-.9h.635Zm-2.338-.436a2.114,2.114,0,0,0,1.07-.276,2.016,2.016,0,0,0,.765-.8,2.371,2.371,0,0,0,.284-1.13,1.616,1.616,0,0,0-.467-1.2,1.637,1.637,0,0,0-1.208-.462,2.018,2.018,0,0,0-1.493.631A2.133,2.133,0,0,0,227.5,49.2a1.593,1.593,0,0,0,1.673,1.678"/>
        <path id="Path_45" data-name="Path 45" d="M231.512,51.312h-.618l.094-.712a2.573,2.573,0,0,1-1.879.835,2.152,2.152,0,0,1-1.587-.621,2.183,2.183,0,0,1-.621-1.608,2.66,2.66,0,0,1,.809-1.947,2.611,2.611,0,0,1,1.9-.811,2.119,2.119,0,0,1,1.041.245,2,2,0,0,1,.752.778l.109-.9h.635Zm-2.338-.436a2.114,2.114,0,0,0,1.07-.276,2.016,2.016,0,0,0,.765-.8,2.371,2.371,0,0,0,.284-1.13,1.616,1.616,0,0,0-.467-1.2,1.637,1.637,0,0,0-1.208-.462,2.018,2.018,0,0,0-1.493.631A2.133,2.133,0,0,0,227.5,49.2a1.593,1.593,0,0,0,1.673,1.678"/>
        <path id="Path_46" data-name="Path 46" d="M231.512,51.312h-.618l.094-.712a2.573,2.573,0,0,1-1.879.835,2.152,2.152,0,0,1-1.587-.621,2.183,2.183,0,0,1-.621-1.608,2.66,2.66,0,0,1,.809-1.947,2.611,2.611,0,0,1,1.9-.811,2.119,2.119,0,0,1,1.041.245,2,2,0,0,1,.752.778l.109-.9h.635Zm-2.338-.436a2.114,2.114,0,0,0,1.07-.276,2.016,2.016,0,0,0,.765-.8,2.371,2.371,0,0,0,.284-1.13,1.616,1.616,0,0,0-.467-1.2,1.637,1.637,0,0,0-1.208-.462,2.018,2.018,0,0,0-1.493.631A2.133,2.133,0,0,0,227.5,49.2a1.593,1.593,0,0,0,1.673,1.678Z" fill="none" stroke="#211e1f" stroke-width="0.019"/>
        <path id="Path_47" data-name="Path 47" d="M233.537,46.567h.626l1.2,3.463,2-3.463h.663l-2.735,4.744h-.112Z"/>
        <path id="Path_48" data-name="Path 48" d="M233.537,46.567h.626l1.2,3.463,2-3.463h.663l-2.735,4.744h-.112Z"/>
        <path id="Path_49" data-name="Path 49" d="M233.537,46.567h.626l1.2,3.463,2-3.463h.663l-2.735,4.744h-.112Z" fill="none" stroke="#211e1f" stroke-width="0.019"/>
        <path id="Path_50" data-name="Path 50" d="M239.044,46.567h.629l1.227,3.505,2.037-3.505h.682L239.744,53.6h-.687l1.454-2.855Z"/>
        <path id="Path_51" data-name="Path 51" d="M239.044,46.567h.629l1.227,3.505,2.037-3.505h.682L239.744,53.6h-.687l1.454-2.855Z"/>
        <path id="Path_52" data-name="Path 52" d="M239.044,46.567h.629l1.227,3.505,2.037-3.505h.682L239.744,53.6h-.687l1.454-2.855Z" fill="none" stroke="#211e1f" stroke-width="0.019"/>
        <path id="Path_53" data-name="Path 53" d="M255.912,43.89v7.422h-.668V46.1l-3.082,5.214h-.177L250.15,45.92l-1.459,5.392h-.718l2.049-7.422h.12l2.069,6.093L255.8,43.89Z"/>
        <path id="Path_54" data-name="Path 54" d="M255.912,43.89v7.422h-.668V46.1l-3.082,5.214h-.177L250.15,45.92l-1.459,5.392h-.718l2.049-7.422h.12l2.069,6.093L255.8,43.89Z"/>
        <path id="Path_55" data-name="Path 55" d="M255.912,43.89v7.422h-.668V46.1l-3.082,5.214h-.177L250.15,45.92l-1.459,5.392h-.718l2.049-7.422h.12l2.069,6.093L255.8,43.89Z" fill="none" stroke="#211e1f" stroke-width="0.021"/>
        <path id="Path_56" data-name="Path 56" d="M262.259,51.312h-.616l.094-.712a2.585,2.585,0,0,1-1.882.835,2.158,2.158,0,0,1-1.586-.621,2.191,2.191,0,0,1-.622-1.608,2.651,2.651,0,0,1,.812-1.947,2.611,2.611,0,0,1,1.9-.811,2.114,2.114,0,0,1,1.039.245,2.006,2.006,0,0,1,.754.778l.109-.9h.635Zm-2.336-.436a2.1,2.1,0,0,0,1.067-.276,1.976,1.976,0,0,0,.765-.8,2.337,2.337,0,0,0,.284-1.13,1.622,1.622,0,0,0-.464-1.2,1.645,1.645,0,0,0-1.208-.462,2.013,2.013,0,0,0-1.493.631,2.121,2.121,0,0,0-.624,1.553,1.591,1.591,0,0,0,1.673,1.678"/>
        <path id="Path_57" data-name="Path 57" d="M262.259,51.312h-.616l.094-.712a2.585,2.585,0,0,1-1.882.835,2.158,2.158,0,0,1-1.586-.621,2.191,2.191,0,0,1-.622-1.608,2.651,2.651,0,0,1,.812-1.947,2.611,2.611,0,0,1,1.9-.811,2.114,2.114,0,0,1,1.039.245,2.006,2.006,0,0,1,.754.778l.109-.9h.635Zm-2.336-.436a2.1,2.1,0,0,0,1.067-.276,1.976,1.976,0,0,0,.765-.8,2.337,2.337,0,0,0,.284-1.13,1.622,1.622,0,0,0-.464-1.2,1.645,1.645,0,0,0-1.208-.462,2.013,2.013,0,0,0-1.493.631,2.121,2.121,0,0,0-.624,1.553,1.591,1.591,0,0,0,1.673,1.678"/>
        <path id="Path_58" data-name="Path 58" d="M262.259,51.312h-.616l.094-.712a2.585,2.585,0,0,1-1.882.835,2.158,2.158,0,0,1-1.586-.621,2.191,2.191,0,0,1-.622-1.608,2.651,2.651,0,0,1,.812-1.947,2.611,2.611,0,0,1,1.9-.811,2.114,2.114,0,0,1,1.039.245,2.006,2.006,0,0,1,.754.778l.109-.9h.635Zm-2.336-.436a2.1,2.1,0,0,0,1.067-.276,1.976,1.976,0,0,0,.765-.8,2.337,2.337,0,0,0,.284-1.13,1.622,1.622,0,0,0-.464-1.2,1.645,1.645,0,0,0-1.208-.462,2.013,2.013,0,0,0-1.493.631,2.121,2.121,0,0,0-.624,1.553,1.591,1.591,0,0,0,1.673,1.678Z" fill="none" stroke="#211e1f" stroke-width="0.019"/>
        <path id="Path_59" data-name="Path 59" d="M269.9,43.533h.6l-.454,3.76a2.179,2.179,0,0,1,1.678-.848,1.6,1.6,0,0,1,1.177.452,1.554,1.554,0,0,1,.456,1.166,8.572,8.572,0,0,1-.091,1.07l-.292,2.179h-.6l.3-2.179a8.631,8.631,0,0,0,.086-1.046,1.061,1.061,0,0,0-.306-.791,1.1,1.1,0,0,0-.806-.3,1.663,1.663,0,0,0-.874.248,1.706,1.706,0,0,0-.637.671,4.162,4.162,0,0,0-.35,1.344l-.276,2.053h-.6Z"/>
        <path id="Path_60" data-name="Path 60" d="M269.9,43.533h.6l-.454,3.76a2.179,2.179,0,0,1,1.678-.848,1.6,1.6,0,0,1,1.177.452,1.554,1.554,0,0,1,.456,1.166,8.572,8.572,0,0,1-.091,1.07l-.292,2.179h-.6l.3-2.179a8.631,8.631,0,0,0,.086-1.046,1.061,1.061,0,0,0-.306-.791,1.1,1.1,0,0,0-.806-.3,1.663,1.663,0,0,0-.874.248,1.706,1.706,0,0,0-.637.671,4.162,4.162,0,0,0-.35,1.344l-.276,2.053h-.6Z"/>
        <path id="Path_61" data-name="Path 61" d="M269.9,43.533h.6l-.454,3.76a2.179,2.179,0,0,1,1.678-.848,1.6,1.6,0,0,1,1.177.452,1.554,1.554,0,0,1,.456,1.166,8.572,8.572,0,0,1-.091,1.07l-.292,2.179h-.6l.3-2.179a8.631,8.631,0,0,0,.086-1.046,1.061,1.061,0,0,0-.306-.791,1.1,1.1,0,0,0-.806-.3,1.663,1.663,0,0,0-.874.248,1.706,1.706,0,0,0-.637.671,4.162,4.162,0,0,0-.35,1.344l-.276,2.053h-.6Z" fill="none" stroke="#211e1f" stroke-width="0.019"/>
        <path id="Path_62" data-name="Path 62" d="M275.445,46.568h.577l-.619,4.744h-.6Zm.48-2.391a.489.489,0,0,1,.344.835.489.489,0,0,1-.691-.691.462.462,0,0,1,.347-.144"/>
        <path id="Path_63" data-name="Path 63" d="M275.445,46.568h.577l-.619,4.744h-.6Zm.48-2.391a.489.489,0,0,1,.344.835.489.489,0,0,1-.691-.691.462.462,0,0,1,.347-.144"/>
        <path id="Path_64" data-name="Path 64" d="M275.445,46.568h.577l-.619,4.744h-.6Zm.48-2.391a.489.489,0,0,1,.344.835.489.489,0,0,1-.691-.691A.462.462,0,0,1,275.925,44.177Z" fill="none" stroke="#211e1f" stroke-width="0.019"/>
        <path id="Path_65" data-name="Path 65" d="M277.866,46.567h.587l-.1.739a2.146,2.146,0,0,1,1.683-.859,1.609,1.609,0,0,1,1.19.449,1.649,1.649,0,0,1,.452,1.213,9.243,9.243,0,0,1-.1,1.026l-.3,2.176h-.6l.292-2.176a8.075,8.075,0,0,0,.094-1.028,1.1,1.1,0,0,0-.3-.8,1.06,1.06,0,0,0-.794-.305,1.746,1.746,0,0,0-1.537.921,4.174,4.174,0,0,0-.349,1.344l-.272,2.048h-.6Z"/>
        <path id="Path_66" data-name="Path 66" d="M277.866,46.567h.587l-.1.739a2.146,2.146,0,0,1,1.683-.859,1.609,1.609,0,0,1,1.19.449,1.649,1.649,0,0,1,.452,1.213,9.243,9.243,0,0,1-.1,1.026l-.3,2.176h-.6l.292-2.176a8.075,8.075,0,0,0,.094-1.028,1.1,1.1,0,0,0-.3-.8,1.06,1.06,0,0,0-.794-.305,1.746,1.746,0,0,0-1.537.921,4.174,4.174,0,0,0-.349,1.344l-.272,2.048h-.6Z"/>
        <path id="Path_67" data-name="Path 67" d="M277.866,46.567h.587l-.1.739a2.146,2.146,0,0,1,1.683-.859,1.609,1.609,0,0,1,1.19.449,1.649,1.649,0,0,1,.452,1.213,9.243,9.243,0,0,1-.1,1.026l-.3,2.176h-.6l.292-2.176a8.075,8.075,0,0,0,.094-1.028,1.1,1.1,0,0,0-.3-.8,1.06,1.06,0,0,0-.794-.305,1.746,1.746,0,0,0-1.537.921,4.174,4.174,0,0,0-.349,1.344l-.272,2.048h-.6Z" fill="none" stroke="#211e1f" stroke-width="0.019"/>
        <path id="Path_68" data-name="Path 68" d="M287.411,49.063h-4.23a1.8,1.8,0,0,0,.441,1.329,1.572,1.572,0,0,0,1.208.482,2.086,2.086,0,0,0,.926-.2,1.9,1.9,0,0,0,.707-.574l.452.37a2.444,2.444,0,0,1-.9.705,2.782,2.782,0,0,1-1.2.264,2.043,2.043,0,0,1-1.678-.692,2.411,2.411,0,0,1-.561-1.555,2.686,2.686,0,0,1,.378-1.362,2.728,2.728,0,0,1,1.01-1.016,2.7,2.7,0,0,1,1.367-.365,2.006,2.006,0,0,1,1.509.618,2.163,2.163,0,0,1,.6,1.572,3.57,3.57,0,0,1-.031.427m-.778-.532a1.523,1.523,0,0,0-.459-1.085,1.5,1.5,0,0,0-1.086-.415,2.056,2.056,0,0,0-1.252.4,2.148,2.148,0,0,0-.77,1.1Z"/>
        <path id="Path_69" data-name="Path 69" d="M287.411,49.063h-4.23a1.8,1.8,0,0,0,.441,1.329,1.572,1.572,0,0,0,1.208.482,2.086,2.086,0,0,0,.926-.2,1.9,1.9,0,0,0,.707-.574l.452.37a2.444,2.444,0,0,1-.9.705,2.782,2.782,0,0,1-1.2.264,2.043,2.043,0,0,1-1.678-.692,2.411,2.411,0,0,1-.561-1.555,2.686,2.686,0,0,1,.378-1.362,2.728,2.728,0,0,1,1.01-1.016,2.7,2.7,0,0,1,1.367-.365,2.006,2.006,0,0,1,1.509.618,2.163,2.163,0,0,1,.6,1.572,3.57,3.57,0,0,1-.031.427m-.778-.532a1.523,1.523,0,0,0-.459-1.085,1.5,1.5,0,0,0-1.086-.415,2.056,2.056,0,0,0-1.252.4,2.148,2.148,0,0,0-.77,1.1Z"/>
        <path id="Path_70" data-name="Path 70" d="M287.411,49.063h-4.23a1.8,1.8,0,0,0,.441,1.329,1.572,1.572,0,0,0,1.208.482,2.086,2.086,0,0,0,.926-.2,1.9,1.9,0,0,0,.707-.574l.452.37a2.444,2.444,0,0,1-.9.705,2.782,2.782,0,0,1-1.2.264,2.043,2.043,0,0,1-1.678-.692,2.411,2.411,0,0,1-.561-1.555,2.686,2.686,0,0,1,.378-1.362,2.728,2.728,0,0,1,1.01-1.016,2.7,2.7,0,0,1,1.367-.365,2.006,2.006,0,0,1,1.509.618,2.163,2.163,0,0,1,.6,1.572A3.57,3.57,0,0,1,287.411,49.063Zm-.778-.532a1.523,1.523,0,0,0-.459-1.085,1.5,1.5,0,0,0-1.086-.415,2.056,2.056,0,0,0-1.252.4,2.148,2.148,0,0,0-.77,1.1Z" fill="none" stroke="#211e1f" stroke-width="0.019"/>
        <path id="Path_71" data-name="Path 71" d="M288.94,46.567h.611l-.084.6a1.789,1.789,0,0,1,.592-.53,1.452,1.452,0,0,1,.705-.188,1.341,1.341,0,0,1,.538.12l-.287.558a1.049,1.049,0,0,0-.381-.091,1.07,1.07,0,0,0-.629.222,1.586,1.586,0,0,0-.5.65,5.63,5.63,0,0,0-.329,1.4l-.276,2.009h-.6Z"/>
        <path id="Path_72" data-name="Path 72" d="M288.94,46.567h.611l-.084.6a1.789,1.789,0,0,1,.592-.53,1.452,1.452,0,0,1,.705-.188,1.341,1.341,0,0,1,.538.12l-.287.558a1.049,1.049,0,0,0-.381-.091,1.07,1.07,0,0,0-.629.222,1.586,1.586,0,0,0-.5.65,5.63,5.63,0,0,0-.329,1.4l-.276,2.009h-.6Z"/>
        <path id="Path_73" data-name="Path 73" d="M288.94,46.567h.611l-.084.6a1.789,1.789,0,0,1,.592-.53,1.452,1.452,0,0,1,.705-.188,1.341,1.341,0,0,1,.538.12l-.287.558a1.049,1.049,0,0,0-.381-.091,1.07,1.07,0,0,0-.629.222,1.586,1.586,0,0,0-.5.65,5.63,5.63,0,0,0-.329,1.4l-.276,2.009h-.6Z" fill="none" stroke="#211e1f" stroke-width="0.019"/>
        <path id="Path_74" data-name="Path 74" d="M292.737,46.567h.629l1.226,3.505,2.038-3.505h.682l-3.985,6.918h-.686L294.2,50.74Z"/>
        <path id="Path_75" data-name="Path 75" d="M292.737,46.567h.629l1.226,3.505,2.038-3.505h.682l-3.985,6.918h-.686L294.2,50.74Z"/>
        <path id="Path_76" data-name="Path 76" d="M292.737,46.567h.629l1.226,3.505,2.038-3.505h.682l-3.985,6.918h-.686L294.2,50.74Z" fill="none" stroke="#211e1f" stroke-width="0.019"/>
        <path id="Path_77" data-name="Path 77" d="M267.724,50.5a2.527,2.527,0,0,1-.277.157,2.589,2.589,0,0,1-1.049.219,1.931,1.931,0,0,1-.929-.214,1.522,1.522,0,0,1-.613-.611,1.853,1.853,0,0,1-.219-.9,2.123,2.123,0,0,1,1.1-1.843,2.43,2.43,0,0,1,1.148-.279,1.887,1.887,0,0,1,1.078.313l.05-.647a2.594,2.594,0,0,0-1.125-.248,2.811,2.811,0,0,0-2.028.8,2.617,2.617,0,0,0-.824,1.942,2.172,2.172,0,0,0,.628,1.633,2.425,2.425,0,0,0,1.757.611,3.2,3.2,0,0,0,1.247-.227Z"/>
        <path id="Path_78" data-name="Path 78" d="M267.724,50.5a2.527,2.527,0,0,1-.277.157,2.589,2.589,0,0,1-1.049.219,1.931,1.931,0,0,1-.929-.214,1.522,1.522,0,0,1-.613-.611,1.853,1.853,0,0,1-.219-.9,2.123,2.123,0,0,1,1.1-1.843,2.43,2.43,0,0,1,1.148-.279,1.887,1.887,0,0,1,1.078.313l.05-.647a2.594,2.594,0,0,0-1.125-.248,2.811,2.811,0,0,0-2.028.8,2.617,2.617,0,0,0-.824,1.942,2.172,2.172,0,0,0,.628,1.633,2.425,2.425,0,0,0,1.757.611,3.2,3.2,0,0,0,1.247-.227Z"/>
        <path id="Path_79" data-name="Path 79" d="M267.724,50.5a2.527,2.527,0,0,1-.277.157,2.589,2.589,0,0,1-1.049.219,1.931,1.931,0,0,1-.929-.214,1.522,1.522,0,0,1-.613-.611,1.853,1.853,0,0,1-.219-.9,2.123,2.123,0,0,1,1.1-1.843,2.43,2.43,0,0,1,1.148-.279,1.887,1.887,0,0,1,1.078.313l.05-.647a2.594,2.594,0,0,0-1.125-.248,2.811,2.811,0,0,0-2.028.8,2.617,2.617,0,0,0-.824,1.942,2.172,2.172,0,0,0,.628,1.633,2.425,2.425,0,0,0,1.757.611,3.2,3.2,0,0,0,1.247-.227Z" fill="none" stroke="#211e1f" stroke-width="0.019"/>
      </g>
    </g>
  </g>
</svg>
