<svg xmlns="http://www.w3.org/2000/svg" width="161.145" height="44.039" viewBox="0 0 161.145 44.039">
  <g id="Group_3484" data-name="Group 3484" transform="translate(-638.074 -35.743)">
    <path id="Path_203" data-name="Path 203" d="M728.292,42.376c-9.861,0-15.169,7.358-15.169,16.981,0,9.643,5.248,17.115,15.169,17.115s15.234-7.388,15.234-17.115c0-9.643-5.447-16.981-15.234-16.981m0,27.46c-5.152,0-7.99-3.722-7.99-10.479,0-5.8,2.085-10.279,7.99-10.279,5.227,0,7.99,3.51,7.99,10.279,0,6.856-2.763,10.479-7.99,10.479" transform="translate(55.694 3.309)"/>
    <path id="Path_204" data-name="Path 204" d="M674.744,66.409V50.047h9.392V43.563h-9.392V33.154h-7.115V67.676c-.009,5.8,3.687,9.515,9.547,9.515a17.858,17.858,0,0,0,8.357-1.965l-1.787-5.965c-3.551,1.692-9.12,2.357-9-2.852" transform="translate(52.141 2.589)"/>
    <path id="Path_205" data-name="Path 205" d="M650.949,42.376c-8.986,0-14.454,8.159-14.454,16.914,0,9.517,5.347,17.182,15.227,17.182A19.437,19.437,0,0,0,664.231,71.9l-3.387-5.3a13.056,13.056,0,0,1-8.954,3.5,8.41,8.41,0,0,1-8.338-7.6h21.73c.067-1.175.185-2.206.185-3.411,0-10.621-5.292-16.714-14.519-16.714m-7.185,14.167c.45-5.644,4.224-8,7.249-8,4.5,0,7.059,2.787,7.21,7.846l.005.153Z" transform="translate(49.709 3.309)"/>
    <path id="Path_206" data-name="Path 206" d="M702.865,56.339l-5.106-1c-2.469-.511-3.613-1.516-3.613-3.377,0-2.861,3.233-3.755,6-3.755a14.041,14.041,0,0,1,7.971,2.443l3.345-5.271a22.05,22.05,0,0,0-11.485-3.066c-6.862,0-12.9,3.357-12.9,10.316,0,5.18,2.933,8.139,9,9.319l5.158,1.01c2.556.5,3.524,1.644,3.524,3.674,0,2.267-1.775,3.8-5.24,3.8a12.814,12.814,0,0,1-8.877-3.747l-4,4.9c2.986,3.147,7.726,4.9,12.734,4.9,6.9,0,12.517-3.305,12.517-10.292,0-5.828-3.249-8.716-9.03-9.845" transform="translate(53.626 3.305)"/>
    <path id="Path_207" data-name="Path 207" d="M613.448,62.963,599.386,33.153h-7.535V76.725h7.328v-28.7l11.057,23.384h6.423l11.057-23.384v28.7h7.328V33.153h-7.535Z" transform="translate(46.223 2.589)"/>
  </g>
</svg>
