<svg xmlns="http://www.w3.org/2000/svg" width="14.324" height="14.712" viewBox="0 0 14.324 14.712">
  <g id="Group_3490" data-name="Group 3490" transform="translate(-284.678 -59.625)">
    <path id="Path_1389" data-name="Path 1389" d="M292.933,59.625c.255.036.511.063.764.109a6.185,6.185,0,0,1,2.712,1.243,6.772,6.772,0,0,1,2.2,2.942,6.45,6.45,0,0,1,.391,2.621.527.527,0,0,1-.547.545.542.542,0,0,1-.6-.51c-.044-.342-.06-.688-.119-1.026a6.239,6.239,0,0,0-1.034-2.664,4.576,4.576,0,0,0-2-1.532,8.416,8.416,0,0,0-2.317-.573c-.352-.04-.532-.186-.553-.456a.586.586,0,0,1,.443-.676c.012,0,.023-.015.035-.023Z" fill="#fff"/>
    <path id="Path_1390" data-name="Path 1390" d="M284.678,62.958a2.485,2.485,0,0,1,1.461-2.274,2.393,2.393,0,0,1,.96-.316,1.286,1.286,0,0,1,.958.305,6.775,6.775,0,0,1,1.216,1.371,14.552,14.552,0,0,1,.869,1.45,1.215,1.215,0,0,1-.43,1.616c-.087.067-.178.129-.266.2a.944.944,0,0,0-.359,1.224,5.518,5.518,0,0,0,1.008,1.66,6.5,6.5,0,0,0,2.219,1.623.854.854,0,0,0,.837.063,1.664,1.664,0,0,0,.408-.412,2.009,2.009,0,0,1,.743-.639,1.379,1.379,0,0,1,1.248.043,10.872,10.872,0,0,1,1.175.739c.423.3.833.613,1.233.941a1.346,1.346,0,0,1,.434,1.832,3.44,3.44,0,0,1-2.267,1.9A1.921,1.921,0,0,1,294.8,74.1a19.692,19.692,0,0,1-4.536-2.7,17.225,17.225,0,0,1-3.214-3.386,18.874,18.874,0,0,1-2.1-3.811,3.243,3.243,0,0,1-.273-1.241" fill="#fff"/>
    <path id="Path_1391" data-name="Path 1391" d="M297.08,65.818a4.586,4.586,0,0,1-.037.485.5.5,0,0,1-.538.42.491.491,0,0,1-.55-.382c-.048-.2-.056-.416-.093-.623a4.75,4.75,0,0,0-.47-1.482,2.581,2.581,0,0,0-1.541-1.212c-.412-.135-.839-.226-1.262-.32a.577.577,0,0,1-.5-.819.542.542,0,0,1,.591-.379,4.63,4.63,0,0,1,4.205,3.124,3.948,3.948,0,0,1,.191,1.188" fill="#fff"/>
    <path id="Path_1392" data-name="Path 1392" d="M295.238,65.724a3.422,3.422,0,0,1-.052.339.532.532,0,0,1-.506.432.543.543,0,0,1-.568-.373,2.125,2.125,0,0,1-.085-.391,1.234,1.234,0,0,0-.994-1.072c-.122-.027-.245-.049-.363-.084a.49.49,0,0,1-.409-.486.59.59,0,0,1,.425-.6,1.449,1.449,0,0,1,.847.035,2.573,2.573,0,0,1,1.687,2.053c0,.049.006.1.009.143l.009,0" fill="#fff"/>
  </g>
</svg>
