<svg xmlns="http://www.w3.org/2000/svg" width="28.311" height="28.311" viewBox="0 0 28.311 28.311">
  <path id="Path_99" data-name="Path 99" d="M241.569,0h0a14.156,14.156,0,1,0,14.156,14.155A14.156,14.156,0,0,0,241.569,0m6.606,19.325a3.516,3.516,0,0,1-1.154,1.513,2.9,2.9,0,0,1-1.721.681h-.037l-.018,0c-.039-.011-.09-.022-.149-.035a3.511,3.511,0,0,1-.606-.18,20.053,20.053,0,0,1-6.272-4.164,18.841,18.841,0,0,1-4.132-6.292,2.809,2.809,0,0,1-.043-2.268,2.96,2.96,0,0,1,1.842-1.511,1.439,1.439,0,0,1,.99,0,5.437,5.437,0,0,1,1.608,1.626,5.52,5.52,0,0,1,1.062,2.016,1.432,1.432,0,0,1-.808,1.273,1.167,1.167,0,0,0-.374,1.656,6.523,6.523,0,0,0,3.407,3.319.935.935,0,0,0,1.321-.3,1.774,1.774,0,0,1,1.117-.852,2.035,2.035,0,0,1,1.542.47l.24.167c.381.266.774.54,1.143.837.071.057.146.115.219.17.549.42,1.171.9.823,1.881M241.678,8a5.489,5.489,0,0,0-.574.03.326.326,0,0,1-.066-.649,6.268,6.268,0,0,1,6.908,6.235c0,.12,0,.242-.011.362a.326.326,0,0,1-.325.307h-.019a.327.327,0,0,1-.307-.344c.006-.108.01-.217.01-.325A5.622,5.622,0,0,0,241.678,8m4.829,5.616a.326.326,0,0,1-.652,0,4.182,4.182,0,0,0-4.177-4.177.326.326,0,0,1,0-.652,4.834,4.834,0,0,1,4.829,4.829m2.8.749a.326.326,0,0,1-.325.311h-.016a.327.327,0,0,1-.31-.341c0-.1.007-.577.007-.719a6.99,6.99,0,0,0-8.132-6.89.326.326,0,0,1-.106-.644,7.715,7.715,0,0,1,1.254-.1,7.634,7.634,0,0,1,7.636,7.636c0,.084,0,.619-.008.749" transform="translate(-227.414 0)" fill="#ecb51d"/>
</svg>
