<svg xmlns="http://www.w3.org/2000/svg" width="9.55" height="20.564" viewBox="0 0 9.55 20.564">
  <path id="Path_64" data-name="Path 64" d="M18.82,27.83h-4V18c0-.48,0-.48-.49-.48h-1.3a.39.39,0,0,1-.27-.23V13.45h1.15c.9,0,.89,0,.91-.89a12,12,0,0,1,.15-2.25,3.56,3.56,0,0,1,3.47-3c1.26-.1,2.53,0,3.83,0v3.46H19.83a.83.83,0,0,0-.8.82v1.6c0,.25.14.27.33.27h2.95c-.09,1-.17,1.86-.25,2.77,0,.33-.09.66-.1,1s-.12.33-.36.33H19.3c-.36,0-.45.12-.45.46v9.34C18.84,27.48,18.82,27.64,18.82,27.83Z" transform="translate(-12.76 -7.266)" fill="#734021"/>
</svg>
