<svg xmlns="http://www.w3.org/2000/svg" xmlns:xlink="http://www.w3.org/1999/xlink" width="23.624" height="23.624" viewBox="0 0 23.624 23.624">
  <defs>
    <clipPath id="clip-path">
      <path id="Path_336" data-name="Path 336" d="M11.942-.06A11.812,11.812,0,1,0,23.7,11.806c0-.02,0-.04,0-.061A11.8,11.8,0,0,0,11.942-.06Z" transform="translate(-0.076 0.06)" fill="none"/>
    </clipPath>
  </defs>
  <g id="Group_220" data-name="Group 220" clip-path="url(#clip-path)">
    <path id="Path_334" data-name="Path 334" d="M11.866,0A11.812,11.812,0,1,0,23.624,11.866v-.061A11.8,11.8,0,0,0,11.866,0Z" transform="translate(-0.051 0.041)" fill="#f27321"/>
    <path id="Path_335" data-name="Path 335" d="M16.79,28.708H12.3V17.667c0-.539,0-.539-.55-.539h-1.46a.436.436,0,0,1-.3-.258V12.557h1.291c1.011,0,1,0,1.022-1a13.479,13.479,0,0,1,.169-2.527,4,4,0,0,1,3.9-3.369c1.415-.112,2.842,0,4.3,0V9.547h-2.74a.931.931,0,0,0-.9.921v1.8c0,.281.157.3.371.3H20.71c-.1,1.123-.191,2.089-.281,3.111,0,.371-.1.741-.113,1.123s-.135.371-.4.371H17.329c-.4,0-.506.135-.506.516V28.18C16.813,28.315,16.79,28.494,16.79,28.708Z" transform="translate(-3.296 -1.783)" fill="#fff"/>
  </g>
</svg>
