<svg id="Group_225" data-name="Group 225" xmlns="http://www.w3.org/2000/svg" width="21.522" height="21.738" viewBox="0 0 21.522 21.738">
  <path id="Path_351" data-name="Path 351" d="M67.022,33.782v2.1c-.013.372-.02.744-.038,1.116-.057,1.191-.039,2.392-.193,3.571A5.484,5.484,0,0,1,62.4,45.4a19.456,19.456,0,0,1-2.879.272c-.749.048-1.5.044-2.251.063h-2.08c-.154-.013-.307-.032-.461-.037-1.2-.038-2.411-.026-3.611-.118A5.68,5.68,0,0,1,45.7,40.607c-.119-.7-.139-1.409-.2-2.115V31.246c.045-.576.077-1.153.138-1.727a5.745,5.745,0,0,1,5.325-5.38c.569-.061,1.141-.093,1.711-.139h7.174c.581.048,1.164.082,1.743.145A5.585,5.585,0,0,1,66.63,28.4a15.168,15.168,0,0,1,.316,2.645C67.009,31.952,67,32.868,67.022,33.782Zm-19.63,1.266c.057,1.548.08,3.287.2,5.019a3.65,3.65,0,0,0,1.6,2.866,4.086,4.086,0,0,0,2.158.7c1.36.064,2.723.112,4.084.108,1.911-.006,3.824-.033,5.733-.115a3.8,3.8,0,0,0,2.8-1.283,4.034,4.034,0,0,0,.971-2.516c.075-1.385.115-2.774.111-4.161-.005-1.93-.035-3.862-.114-5.791a3.9,3.9,0,0,0-1.145-2.7,4.02,4.02,0,0,0-2.875-1.123c-3.106-.038-6.215-.083-9.319.008-2.458.072-3.791,1.373-4.026,3.839C47.412,31.544,47.448,33.2,47.393,35.048Z" transform="translate(-45.5 -24)" fill="#f27321"/>
  <path id="Path_352" data-name="Path 352" d="M106.135,90.805a5.522,5.522,0,1,1,5.506,5.593A5.529,5.529,0,0,1,106.135,90.805Zm1.941.024a3.581,3.581,0,1,0,3.562-3.625A3.61,3.61,0,0,0,108.076,90.83Z" transform="translate(-100.904 -79.961)" fill="#f27321"/>
  <path id="Path_353" data-name="Path 353" d="M222.918,70.2a1.3,1.3,0,1,1,1.31-1.3A1.293,1.293,0,0,1,222.918,70.2Z" transform="translate(-206.45 -63.832)" fill="#f27321"/>
</svg>
