<svg id="P.Lean_-_Website_-_Contact_Instagram_220902" data-name="P.Lean - Website - Contact (Instagram) 220902" xmlns="http://www.w3.org/2000/svg" xmlns:xlink="http://www.w3.org/1999/xlink" width="50" height="50" viewBox="0 0 50 50">
  <defs>
    <linearGradient id="linear-gradient" x1="0.5" y1="0.02" x2="0.5" y2="0.995" gradientUnits="objectBoundingBox">
      <stop offset="0" stop-color="#cd00bc"/>
      <stop offset="0.35" stop-color="#ff0090"/>
      <stop offset="0.65" stop-color="#ff3200"/>
      <stop offset="1" stop-color="#ff9b00"/>
    </linearGradient>
  </defs>
  <path id="Path_37" data-name="Path 37" d="M25,0A25,25,0,1,0,50,25,25,25,0,0,0,25,0Z" fill="url(#linear-gradient)"/>
  <path id="Path_38" data-name="Path 38" d="M29.79,25m6.4-8.47a4.71,4.71,0,0,0-2.72-2.72,7.84,7.84,0,0,0-2.67-.49c-1.51-.07-2-.09-5.8-.09s-4.29,0-5.8.08a8,8,0,0,0-2.67.5,4.71,4.71,0,0,0-2.72,2.72,8,8,0,0,0-.5,2.67c-.06,1.51-.08,2-.08,5.8s0,4.29.08,5.8a8,8,0,0,0,.5,2.67,4.71,4.71,0,0,0,2.72,2.72,8,8,0,0,0,2.67.5c1.51.06,2,.08,5.8.08s4.29,0,5.8-.08a8,8,0,0,0,2.67-.5,4.73,4.73,0,0,0,2.72-2.72,8,8,0,0,0,.5-2.67c.06-1.51.08-2,.08-5.8s0-4.29-.08-5.8a8,8,0,0,0-.5-2.67Zm-3.53,2.53a1.72,1.72,0,1,1,1.223-.5,1.73,1.73,0,0,1-1.223.5Zm0,0,6.61,11.86a10.35,10.35,0,0,1-.67,3.48,7.3,7.3,0,0,1-4.2,4.2,10.35,10.35,0,0,1-3.48.67c-1.53.07-2,.09-5.92.09s-4.39,0-5.92-.09a10.35,10.35,0,0,1-3.48-.67,7.25,7.25,0,0,1-4.2-4.2,10.35,10.35,0,0,1-.67-3.48c-.07-1.53-.09-2-.09-5.92s0-4.39.09-5.92a10.35,10.35,0,0,1,.67-3.48,7.25,7.25,0,0,1,4.2-4.2,10.35,10.35,0,0,1,3.48-.67c1.53-.07,2-.09,5.92-.09s4.39,0,5.92.09a10.35,10.35,0,0,1,3.48.67,7.25,7.25,0,0,1,4.2,4.2,10.35,10.35,0,0,1,.67,3.48c.07,1.53.09,2,.09,5.92s0,4.39-.09,5.92Zm0,0M25,17.63A7.37,7.37,0,1,0,32.37,25,7.37,7.37,0,0,0,25,17.63Zm0,12.16A4.79,4.79,0,1,1,29.79,25,4.79,4.79,0,0,1,25,29.79Z" fill="#fff"/>
</svg>
