<svg xmlns="http://www.w3.org/2000/svg" xmlns:xlink="http://www.w3.org/1999/xlink" width="25.764" height="20.92" viewBox="0 0 25.764 20.92">
  <defs>
    <linearGradient id="linear-gradient" y1="0.488" x2="11.13" y2="0.488" gradientUnits="objectBoundingBox">
      <stop offset="0" stop-color="#ee0a3f"/>
      <stop offset="1" stop-color="#ee0a3f" stop-opacity="0"/>
    </linearGradient>
    <linearGradient id="linear-gradient-2" x1="-0.003" y1="0.501" x2="0.997" y2="0.501" gradientUnits="objectBoundingBox">
      <stop offset="0" stop-color="#ed6600"/>
      <stop offset="1" stop-color="#f98200"/>
    </linearGradient>
    <linearGradient id="linear-gradient-3" y1="0.498" x2="1" y2="0.498" gradientUnits="objectBoundingBox">
      <stop offset="0" stop-color="#ffb900"/>
      <stop offset="0.34" stop-color="#f38000"/>
      <stop offset="0.57" stop-color="#f83c72"/>
      <stop offset="0.78" stop-color="#fc1cbe"/>
      <stop offset="0.93" stop-color="#fe08ed"/>
      <stop offset="1" stop-color="#f0f"/>
    </linearGradient>
    <linearGradient id="linear-gradient-4" x1="-8.348" y1="0.5" x2="0.845" y2="0.5" xlink:href="#linear-gradient-2"/>
    <linearGradient id="linear-gradient-5" x1="1" y1="0.5" x2="-0.94" y2="0.5" gradientUnits="objectBoundingBox">
      <stop offset="0" stop-color="#f0f"/>
      <stop offset="0.07" stop-color="#fe08ed"/>
      <stop offset="0.22" stop-color="#fc1cbe"/>
      <stop offset="0.43" stop-color="#f83c72"/>
      <stop offset="0.66" stop-color="#f38000"/>
      <stop offset="1" stop-color="#ffb900"/>
    </linearGradient>
    <linearGradient id="linear-gradient-6" x1="0" y1="0.5" x2="1" y2="0.5" xlink:href="#linear-gradient"/>
    <linearGradient id="linear-gradient-7" x1="8.147" y1="0.493" x2="-6.912" y2="0.493" xlink:href="#linear-gradient-5"/>
  </defs>
  <g id="P.Lean_-_Website_-_Icon_Lazada_Over_220902" data-name="P.Lean - Website - Icon Lazada (Over) 220902" transform="translate(-4.62 -7.75)">
    <g id="g71">
      <path id="path69" d="M17.5,28.63a1.07,1.07,0,0,1-.52-.14c-1.36-.79-11.45-7.11-11.84-7.31a.91.91,0,0,1-.52-.73V11.58a1,1,0,0,1,.44-.83h.07c1-.61,4.24-2.6,4.76-2.89a.77.77,0,0,1,.39-.11.79.79,0,0,1,.37.1s4.58,3,5.28,3.24A3.88,3.88,0,0,0,19.25,11c.68-.37,5.05-3.14,5.1-3.14a.75.75,0,0,1,.36-.1.74.74,0,0,1,.39.11c.6.33,4.65,2.81,4.82,2.92a.94.94,0,0,1,.46.82v8.87a.89.89,0,0,1-.52.73c-.39.21-10.45,6.54-11.84,7.31a.93.93,0,0,1-.52.15" fill="#fff"/>
    </g>
    <path id="Path_76" data-name="Path 76" d="M17.66,18.37v2a1.52,1.52,0,0,0,1.14-1.55,1.7,1.7,0,0,0-.25-.91Z" fill="url(#linear-gradient)"/>
    <path id="Path_77" data-name="Path 77" d="M14.72,18.79a2.78,2.78,0,0,1,.49-1.57l-2.83-1.55v4.48h2v1.12H11.21V15L4.66,11.43a1.55,1.55,0,0,0,0,.21v8.82a.87.87,0,0,0,.49.68c.18.09,2.37,1.45,4.9,3,2.87,1.78,6.13,3.93,6.85,4.35a1,1,0,0,0,.34.11V21.38h-.08a2.48,2.48,0,0,1-2.44-2.59Z" fill="url(#linear-gradient-2)"/>
    <path id="Path_78" data-name="Path 78" d="M12.38,14.5v.63l3.15,1.73a2.25,2.25,0,0,1,1.59-.66,2,2,0,0,1,1.6.76V16.3h1.09v.35L30.19,11a.82.82,0,0,0-.22-.19c-.17-.11-4.24-2.6-4.83-2.93a.8.8,0,0,0-.4-.11.65.65,0,0,0-.36.1c-.05,0-4.44,2.78-5.12,3.14a3.4,3.4,0,0,1-1.76.43,3.59,3.59,0,0,1-1.58-.33c-.7-.26-5.29-3.26-5.29-3.26a.78.78,0,0,0-.37-.09.8.8,0,0,0-.4.11c-.51.29-3.79,2.29-4.77,2.9H5.01a1.1,1.1,0,0,0-.22.21l6.44,3.53Z" fill="url(#linear-gradient-3)"/>
    <path id="Path_79" data-name="Path 79" d="M15.85,18.79a1.49,1.49,0,0,0,1.35,1.58V18.31l-1-.56a1.72,1.72,0,0,0-.35,1.04Z" fill="url(#linear-gradient-4)"/>
    <path id="Path_80" data-name="Path 80" d="M30.38,11.59a1,1,0,0,0,0-.18L21.43,16.3h3.26v.88l-2.6,3.1h2.66v1H20.67v-.87l2.61-3.12H20.7V16.7l-.89.49v4.09H18.72v-.67a1.94,1.94,0,0,1-1.06.69v7.33a1,1,0,0,0,.34-.11c.74-.42,4-2.47,6.93-4.27,2.56-1.6,4.77-3,4.95-3.07a.84.84,0,0,0,.5-.69Z" fill="url(#linear-gradient-5)"/>
    <path id="Path_81" data-name="Path 81" d="M30.38,11.59a1,1,0,0,0,0-.18L21.43,16.3h3.26v.88l-2.6,3.1h2.66v1H20.67v-.87l2.61-3.12H20.7V16.7l-.89.49v4.09H18.72v-.67a1.94,1.94,0,0,1-1.06.69v7.33a1,1,0,0,0,.34-.11c.74-.42,4-2.47,6.93-4.27,2.56-1.6,4.77-3,4.95-3.07a.84.84,0,0,0,.5-.69Z" fill="url(#linear-gradient-6)"/>
    <path id="Path_82" data-name="Path 82" d="M17.32,17.2a1.43,1.43,0,0,0-.78.22l.94.51.76-.41A1.41,1.41,0,0,0,17.32,17.2Z" fill="url(#linear-gradient-7)"/>
  </g>
</svg>
