<svg xmlns="http://www.w3.org/2000/svg" width="22" height="20" viewBox="0 0 11.598 9.418">
  <g id="Group_222" data-name="Group 222" transform="translate(-2.08 -3.489)">
    <g id="g71" transform="translate(2.08 3.489)">
      <path id="path69" d="M10.418,17.149a.486.486,0,0,1-.234-.063c-.612-.356-5.154-3.2-5.33-3.291a.41.41,0,0,1-.234-.329V9.474a.449.449,0,0,1,.2-.374H4.85c.45-.275,1.909-1.17,2.143-1.3a.346.346,0,0,1,.176-.05.353.353,0,0,1,.167.045S9.4,9.146,9.711,9.254a1.747,1.747,0,0,0,1.495-.041c.306-.167,2.273-1.414,2.3-1.414a.325.325,0,0,1,.338,0c.27.149,2.093,1.265,2.17,1.314a.423.423,0,0,1,.207.369v3.993a.4.4,0,0,1-.234.329c-.176.095-4.7,2.944-5.33,3.291a.42.42,0,0,1-.234.068" transform="translate(-4.62 -7.75)" fill="#fff"/>
    </g>
    <path id="Path_339" data-name="Path 339" d="M17.66,18.117v.9a.684.684,0,0,0,.513-.7.765.765,0,0,0-.113-.41Z" transform="translate(-9.71 -9.848)" fill="#f27321"/>
    <path id="Path_340" data-name="Path 340" d="M9.187,14.743a1.25,1.25,0,0,1,.221-.707l-1.274-.7v2.017h.9v.5H7.607V13.037L4.658,11.43a.662.662,0,0,0,0,.095V15.5a.391.391,0,0,0,.221.306c.081.041,1.067.653,2.206,1.351,1.292.8,2.76,1.769,3.084,1.958a.449.449,0,0,0,.153.05v-3.25h-.036a1.116,1.116,0,0,1-1.1-1.133C9.186,14.765,9.186,14.754,9.187,14.743Z" transform="translate(-2.56 -6.285)" fill="#f27321"/>
    <path id="Path_341" data-name="Path 341" d="M8.207,10.794v.284l1.418.779a1.014,1.014,0,0,1,.716-.3.9.9,0,0,1,.72.342v-.3h.491v.158l4.673-2.543a.368.368,0,0,0-.1-.086c-.077-.05-1.909-1.17-2.174-1.319a.361.361,0,0,0-.18-.05.291.291,0,0,0-.162.045c-.023,0-2,1.251-2.3,1.414a1.532,1.532,0,0,1-.792.194A1.615,1.615,0,0,1,9.8,9.268C9.485,9.151,7.419,7.8,7.419,7.8a.352.352,0,0,0-.167-.041.361.361,0,0,0-.18.05c-.23.131-1.706,1.031-2.147,1.305H4.889a.481.481,0,0,0-.1.095l2.9,1.589Z" transform="translate(-2.634 -4.267)" fill="#f27321"/>
    <path id="Path_342" data-name="Path 342" d="M15.848,18.218a.671.671,0,0,0,.608.711V18l-.45-.252A.774.774,0,0,0,15.848,18.218Z" transform="translate(-8.713 -9.76)" fill="#f27321"/>
    <path id="Path_343" data-name="Path 343" d="M23.386,11.491a.487.487,0,0,0,0-.081l-4.029,2.2h1.468v.4l-1.17,1.4h1.2v.45H19.015v-.392l1.175-1.4H19.029v-.266l-.4.221v1.841h-.491v-.3a.873.873,0,0,1-.477.311v3.3a.449.449,0,0,0,.153-.05c.333-.189,1.8-1.112,3.12-1.922,1.152-.72,2.147-1.351,2.228-1.382a.378.378,0,0,0,.225-.311Z" transform="translate(-9.71 -6.274)" fill="#f27321"/>
    <path id="Path_344" data-name="Path 344" d="M16.891,17.2a.645.645,0,0,0-.351.1l.423.23.342-.185A.634.634,0,0,0,16.891,17.2Z" transform="translate(-9.094 -9.457)" fill="#f27321"/>
  </g>
</svg>
