<svg id="P.Lean_-_Website_-_Contact_Lazada_220902" data-name="P.Lean - Website - Contact (Lazada) 220902" xmlns="http://www.w3.org/2000/svg" xmlns:xlink="http://www.w3.org/1999/xlink" width="50" height="50" viewBox="0 0 50 50">
  <defs>
    <linearGradient id="linear-gradient" x1="1.005" y1="0.5" x2="0.012" y2="0.5" gradientUnits="objectBoundingBox">
      <stop offset="0" stop-color="#ffb900"/>
      <stop offset="0.34" stop-color="#f38000"/>
      <stop offset="0.57" stop-color="#f83c72"/>
      <stop offset="0.78" stop-color="#fc1cbe"/>
      <stop offset="0.93" stop-color="#fe08ed"/>
      <stop offset="1" stop-color="#f0f"/>
    </linearGradient>
  </defs>
  <path id="Path_42" data-name="Path 42" d="M25,0A25,25,0,1,0,50,25,25,25,0,0,0,25,0Z" fill="url(#linear-gradient)"/>
  <g id="g71">
    <path id="path69" d="M25,40.9a1.49,1.49,0,0,1-.74-.2c-2-1.12-16.37-10.16-16.91-10.44a1.32,1.32,0,0,1-.75-1V16.54a1.38,1.38,0,0,1,.62-1.18l.11-.06c1.39-.87,6.06-3.71,6.8-4.13a1.09,1.09,0,0,1,.56-.15,1.25,1.25,0,0,1,.53.13s6.53,4.26,7.53,4.64a5.24,5.24,0,0,0,2.24.47,5,5,0,0,0,2.5-.61c1-.51,7.22-4.48,7.29-4.48A1.07,1.07,0,0,1,35.3,11a1.1,1.1,0,0,1,.56.16c.85.47,6.64,4,6.89,4.17a1.36,1.36,0,0,1,.65,1.16V29.2a1.3,1.3,0,0,1-.75,1.05c-.54.29-14.92,9.33-16.9,10.44a1.62,1.62,0,0,1-.75.21" fill="none"/>
  </g>
  <path id="Path_43" data-name="Path 43" d="M25.23,26.24v2.81a2.15,2.15,0,0,0,1.62-2.21,2.52,2.52,0,0,0-.35-1.3Z" fill="#fff"/>
  <path id="Path_44" data-name="Path 44" d="M21,26.84a3.87,3.87,0,0,1,.7-2.24l-4-2.22v6.41h2.89v1.59H16V21.46L6.66,16.33a1.59,1.59,0,0,0-.06.3v12.6a1.24,1.24,0,0,0,.7,1c.26.13,3.38,2.07,7,4.32,4.1,2.55,8.75,5.63,9.79,6.23a1.34,1.34,0,0,0,.48.15V30.54h-.11A3.55,3.55,0,0,1,21,26.84Z" fill="#fff"/>
  <path id="Path_45" data-name="Path 45" d="M17.69,20.72v.9l4.49,2.46a3.28,3.28,0,0,1,2.28-.94,2.85,2.85,0,0,1,2.28,1.09v-.95H28.3v.51l14.84-8.14a1.4,1.4,0,0,0-.32-.28c-.25-.16-6.06-3.71-6.91-4.18a1.066,1.066,0,0,0-1.09-.02c-.06,0-6.33,4-7.31,4.49a5.45,5.45,0,0,1-4.76.14c-1-.38-7.56-4.65-7.56-4.65a1.27,1.27,0,0,0-.54-.14,1.25,1.25,0,0,0-.56.16c-.74.41-5.43,3.27-6.83,4.14l-.1.06a1.11,1.11,0,0,0-.31.3l9.2,5Z" fill="#fff"/>
  <path id="Path_46" data-name="Path 46" d="M22.64,26.84a2.14,2.14,0,0,0,1.93,2.26V26.16l-1.45-.8A2.45,2.45,0,0,0,22.64,26.84Z" fill="#fff"/>
  <path id="Path_47" data-name="Path 47" d="M43.4,16.55a2.38,2.38,0,0,0,0-.26l-12.74,7h4.66v1.26L31.56,29h3.8v1.4H29.52V29.16l3.73-4.45H29.58v-.86l-1.28.7V30.4H26.74v-.95a2.83,2.83,0,0,1-1.51,1V40.9a1.4,1.4,0,0,0,.49-.15c1.05-.61,5.75-3.53,9.89-6.11,3.66-2.28,6.82-4.25,7.08-4.38a1.25,1.25,0,0,0,.71-1Z" fill="#fff"/>
  <path id="Path_48" data-name="Path 48" d="M43.4,16.55a2.38,2.38,0,0,0,0-.26l-12.74,7h4.66v1.26L31.56,29h3.8v1.4H29.52V29.16l3.73-4.45H29.58v-.86l-1.28.7V30.4H26.74v-.95a2.83,2.83,0,0,1-1.51,1V40.9a1.4,1.4,0,0,0,.49-.15c1.05-.61,5.75-3.53,9.89-6.11,3.66-2.28,6.82-4.25,7.08-4.38a1.25,1.25,0,0,0,.71-1Z" fill="#fff"/>
  <path id="Path_49" data-name="Path 49" d="M24.75,24.56a2,2,0,0,0-1.12.32l1.34.74,1.09-.6A2.06,2.06,0,0,0,24.75,24.56Z" fill="#fff"/>
</svg>
