<svg xmlns="http://www.w3.org/2000/svg" width="22.54" height="21.434" viewBox="0 0 22.54 21.434">
  <g id="P.Lean_-_Website_-_Icon_LINE_220902" data-name="P.Lean - Website - Icon LINE 220902" transform="translate(-6.221 -7.524)">
    <path id="Path_73" data-name="Path 73" d="M28.4,14.34A8.45,8.45,0,0,0,26.32,11a11,11,0,0,0-3.94-2.56,13.16,13.16,0,0,0-4.88-.91A12.82,12.82,0,0,0,15,7.7a12.57,12.57,0,0,0-3.5,1.19,10.46,10.46,0,0,0-3.58,2.92,8,8,0,0,0-1.58,3.52A7.69,7.69,0,0,0,7,20.05,8.93,8.93,0,0,0,9.41,23,11.3,11.3,0,0,0,13,25a13.45,13.45,0,0,0,2.58.61,2,2,0,0,1,.75.27.65.65,0,0,1,.32.48,2.57,2.57,0,0,1,0,.83c-.05.32-.11.65-.16,1a1.93,1.93,0,0,0,0,.41.33.33,0,0,0,.36.35.78.78,0,0,0,.22,0,2.4,2.4,0,0,0,.73-.28,19.554,19.554,0,0,0,1.71-1,42.79,42.79,0,0,0,4.3-3,19.36,19.36,0,0,0,2.6-2.44,11.53,11.53,0,0,0,1.2-1.58,7.47,7.47,0,0,0,1.13-4.54A7.74,7.74,0,0,0,28.4,14.34Z" fill="#734021"/>
    <path id="Path_74" data-name="Path 74" d="M13.19,19.61H10.91a.8.8,0,0,1-.27,0,.55.55,0,0,1-.38-.47c0-.06,0-.11,0-.16V14.66a.92.92,0,0,1,0-.29.58.58,0,0,1,1.13.19v3.91h1.65a.61.61,0,0,1,.58.46.59.59,0,0,1-.43.68Zm2-.16a.55.55,0,0,1-.62.13.57.57,0,0,1-.38-.52V14.6a.73.73,0,0,1,0-.25.58.58,0,0,1,.61-.38.6.6,0,0,1,.53.55V19a.6.6,0,0,1-.11.45Zm5.27.1a.59.59,0,0,1-.76-.16l-.49-.66-1.72-2.34-.07-.09h0V19a.62.62,0,0,1-.18.48.59.59,0,0,1-1-.41c0-.27,0-.53,0-.8V14.64a.9.9,0,0,1,0-.23.591.591,0,0,1,1.04-.21l.36.49,1.87,2.55.07.08V14.59a.59.59,0,0,1,.26-.52.55.55,0,0,1,.59,0,.58.58,0,0,1,.33.5V19a.61.61,0,0,1-.27.55Zm2.42-1.11h1.5a.6.6,0,0,1,.57.43.58.58,0,0,1-.48.74H22.25a.82.82,0,0,1-.28,0,.53.53,0,0,1-.38-.51.49.49,0,0,1,0-.12V14.66a.93.93,0,0,1,0-.23A.58.58,0,0,1,22.2,14h2.22a.6.6,0,0,1,0,1.19H22.77v1h1.62a.61.61,0,0,1,.61.57.59.59,0,0,1-.6.61H22.77v1.05Z" fill="#fff"/>
  </g>
</svg>
