<svg xmlns="http://www.w3.org/2000/svg" width="50" height="50" viewBox="0 0 50 50">
  <g id="P.Lean_-_Website_-_Contact_LINE_220902" data-name="P.Lean - Website - Contact (LINE) 220902" transform="translate(0 0)">
    <path id="Path_39" data-name="Path 39" d="M24.83,0A25,25,0,1,0,50,24.87,25,25,0,0,0,24.83,0Z" fill="#01c201"/>
    <path id="Path_40" data-name="Path 40" d="M40.58,20.49a12.25,12.25,0,0,0-3-4.85A15.84,15.84,0,0,0,32,12a19.73,19.73,0,0,0-10.5-1,18.11,18.11,0,0,0-5,1.69,14.82,14.82,0,0,0-5.11,4.19,11.26,11.26,0,0,0-2.25,5A10.49,10.49,0,0,0,9,25.4a11.07,11.07,0,0,0,1,3.24,12.85,12.85,0,0,0,3.38,4.22,16.37,16.37,0,0,0,5.19,2.9,20.21,20.21,0,0,0,3.69.87,3.11,3.11,0,0,1,1.07.38,1,1,0,0,1,.46.7,4.17,4.17,0,0,1,0,1.17c-.07.47-.16.93-.23,1.4a3.79,3.79,0,0,0-.05.58.48.48,0,0,0,.53.49,1.63,1.63,0,0,0,.31,0,3.86,3.86,0,0,0,1-.4c.84-.43,1.65-.92,2.45-1.42A63.609,63.609,0,0,0,34,35.16a29.07,29.07,0,0,0,3.71-3.48,17.88,17.88,0,0,0,1.71-2.26,10.72,10.72,0,0,0,1.14-8.93Z" fill="#fff"/>
    <path id="Path_41" data-name="Path 41" d="M18.84,28H15.58a1.2,1.2,0,0,1-.38,0,.82.82,0,0,1-.54-.69,1.55,1.55,0,0,1,0-.22V20.9a1.4,1.4,0,0,1,.06-.41.84.84,0,0,1,1.62.27v5.59H18.7A.84.84,0,0,1,18.84,28Zm2.9-.23a.78.78,0,0,1-.88.18.81.81,0,0,1-.55-.74V20.86a1.13,1.13,0,0,1,.06-.36.84.84,0,0,1,.88-.55.86.86,0,0,1,.75.79v6.39a.87.87,0,0,1-.26.66Zm7.53.13a.83.83,0,0,1-1.08-.21c-.24-.31-.47-.63-.7-.95L25,23.41l-.09-.13h0V27.1a.86.86,0,0,1-.27.68.8.8,0,0,1-.9.18.81.81,0,0,1-.53-.76V20.92a1.76,1.76,0,0,1,0-.33A.8.8,0,0,1,23.9,20a.81.81,0,0,1,.83.31l.51.7,2.68,3.65.09.11V20.85a.85.85,0,0,1,.38-.76.82.82,0,0,1,.84-.05.83.83,0,0,1,.47.72v6.38a.84.84,0,0,1-.43.78Zm3.46-1.57h2.14a.82.82,0,0,1,.81.6A.84.84,0,0,1,35,28H31.78a1.11,1.11,0,0,1-.4-.06.77.77,0,0,1-.54-.73,1,1,0,0,1,0-.17V20.87a1.67,1.67,0,0,1,0-.32.84.84,0,0,1,.85-.63h3.17a.84.84,0,0,1,.79,1.12.85.85,0,0,1-.8.57H32.53v1.5h2.31a.86.86,0,0,1,.87.82.83.83,0,0,1-.85.87H32.54v1.51Z" fill="#01c201"/>
  </g>
</svg>
