<svg id="P.Lean_-_Website_-_Contact_MyShop_220902" data-name="P.Lean - Website - Contact (MyShop) 220902" xmlns="http://www.w3.org/2000/svg" width="50" height="50" viewBox="0 0 50 50">
  <path id="Path_50" data-name="Path 50" d="M25,0A25,25,0,1,0,50,25,25,25,0,0,0,25,0Z" fill="#07b23b"/>
  <rect id="Rectangle_6" data-name="Rectangle 6" width="33.15" height="33.15" transform="translate(8.43 8.43)" fill="#07b23b"/>
  <path id="Path_51" data-name="Path 51" d="M23.93,15.73l-.23.34C23.11,17.05,22.52,18,22,19a.68.68,0,0,1-.65.38c-1.13,0-1.13,0-1.72-.94L18.2,16.2l-.2-.39h-.1v4.88c0,.52,0,.54-.53.55s-.95,0-1.43,0c-.27,0-.4-.11-.39-.38s0-.26,0-.39V11.91c0-.27.1-.4.38-.4h1.81c.29,0,.4.17.53.37q1.25,2.1,2.51,4.18l.28.44a4.35,4.35,0,0,0,.28-.44c.81-1.37,1.62-2.75,2.41-4.13a.7.7,0,0,1,.72-.42h1.6c.27,0,.4.11.39.39v8.92c0,.39-.05.43-.43.43H24.54c-.46,0-.5,0-.5-.49v-5Z" fill="#fff"/>
  <path id="Path_52" data-name="Path 52" d="M36.38,34.5v3c0,.16-.05.3-.23.3h-2c-.16-.45-.15-9.49,0-9.9h1.73c.09,0,.19.15.24.25a1.67,1.67,0,0,1,0,.42,1.17,1.17,0,0,0,.23-.13,3.08,3.08,0,0,1,4.66.91,4.4,4.4,0,0,1,0,4.11,3.12,3.12,0,0,1-4.29,1.18,2.91,2.91,0,0,0-.34-.14Zm2.71-3.09a1.41,1.41,0,0,0-1.44-1.53,1.43,1.43,0,0,0-1.45,1.54A1.46,1.46,0,0,0,37.68,33a1.44,1.44,0,0,0,1.41-1.59Z" fill="#fff"/>
  <path id="Path_53" data-name="Path 53" d="M12.27,25a3.31,3.31,0,0,1,3.27,2,2.31,2.31,0,0,1,.1.28c0,.18,0,.32-.18.37l-1.8.48c-.24.06-.31-.13-.41-.29a1.18,1.18,0,0,0-1.31-.68.73.73,0,0,0-.68.51.66.66,0,0,0,.4.74,7.331,7.331,0,0,0,.91.39c.57.23,1.16.42,1.72.68a2.67,2.67,0,0,1,1.6,2.64,2.7,2.7,0,0,1-1.73,2.56,4.53,4.53,0,0,1-3.89,0A3.31,3.31,0,0,1,8.59,32.8c-.16-.4-.11-.49.32-.6s.89-.21,1.33-.33a.43.43,0,0,1,.59.26,1.69,1.69,0,0,0,2.09.72.61.61,0,0,0,.19-1.1,2.58,2.58,0,0,0-.71-.39c-.44-.18-.9-.3-1.33-.49a6.6,6.6,0,0,1-1.28-.7,2.76,2.76,0,0,1,0-4.4A3.75,3.75,0,0,1,12.27,25Z" fill="#fff"/>
  <path id="Path_54" data-name="Path 54" d="M19.38,28.49a1.3,1.3,0,0,0,.24-.13,2.91,2.91,0,0,1,2.5-.51,2.2,2.2,0,0,1,1.82,2.3v4.44c0,.2-.08.36-.32.36H21.9c-.3,0-.33-.21-.33-.44V31.4a5.91,5.91,0,0,0,0-.6.93.93,0,0,0-.69-.9,1.05,1.05,0,0,0-1.22.51,2.57,2.57,0,0,0-.24,1v3c0,.5,0,.53-.54.53h-1.3c-.52,0-.55,0-.55-.57V25.32a.29.29,0,0,1,.32-.32h1.73c.31,0,.33.21.33.44v3Z" fill="#fff"/>
  <path id="Path_55" data-name="Path 55" d="M28.94,35.07a3.62,3.62,0,0,1-3.11-1.37,3.7,3.7,0,0,1-.42-3.84,3.28,3.28,0,0,1,3-2,5.84,5.84,0,0,1,1.67.08,3.42,3.42,0,0,1,2.74,3.9,3.49,3.49,0,0,1-3.88,3.23Zm0-5.19a1.506,1.506,0,1,0,1.43,1.56A1.42,1.42,0,0,0,29,29.88Z" fill="#fff"/>
  <path id="Path_56" data-name="Path 56" d="M35.41,14.26c-.07.21-.11.36-.16.5l-3.63,8.86c-.22.54-.22.54-.82.54H29.6a3.831,3.831,0,0,1-.51-.06,3.41,3.41,0,0,1,.16-.53c.32-.82.64-1.64,1-2.44a.87.87,0,0,0,0-.74Q29,17.61,27.74,14.83c-.07-.16-.11-.33-.18-.53a3,3,0,0,1,.34-.09h1.81c.29,0,.4.16.49.4.37,1,.76,1.95,1.15,2.93a1.119,1.119,0,0,0,.17.41h.09c.07-.15.13-.31.19-.46.38-.95.76-1.9,1.12-2.86a.57.57,0,0,1,.64-.43h1.38C35.07,14.21,35.21,14.24,35.41,14.26Z" fill="#fff"/>
</svg>
