<svg id="P.Lean_-_Website_-_Contact_MyShop_220902" data-name="P.Lean - Website - Contact (MyShop) 220902" xmlns="http://www.w3.org/2000/svg" width="21.847" height="21.847" viewBox="0 0 21.847 21.847">
  <path id="Path_488" data-name="Path 488" d="M10.923,0A10.923,10.923,0,1,0,21.847,10.923,10.923,10.923,0,0,0,10.923,0Z" fill="#07b23b"/>
  <rect id="Rectangle_66" data-name="Rectangle 66" width="14.484" height="14.484" transform="translate(3.683 3.683)" fill="#07b23b"/>
  <path id="Path_489" data-name="Path 489" d="M19.211,13.351l-.1.149c-.258.428-.516.843-.743,1.28a.3.3,0,0,1-.284.166c-.494,0-.494,0-.752-.411l-.625-.979-.087-.17h-.044v2.132c0,.227,0,.236-.232.24s-.415,0-.625,0c-.118,0-.175-.048-.17-.166s0-.114,0-.17v-3.74c0-.118.044-.175.166-.175h.791c.127,0,.175.074.232.162q.546.918,1.1,1.826l.122.192a1.9,1.9,0,0,0,.122-.192c.354-.6.708-1.2,1.053-1.8a.306.306,0,0,1,.315-.184h.7c.118,0,.175.048.17.17v3.9c0,.17-.022.188-.188.188h-.651c-.2,0-.218,0-.218-.214V13.365Z" transform="translate(-8.755 -6.479)" fill="#fff"/>
  <path id="Path_490" data-name="Path 490" d="M35.059,30.694V32c0,.07-.022.131-.1.131h-.874c-.07-.2-.066-4.146,0-4.326h.756c.039,0,.083.066.1.109a.729.729,0,0,1,0,.184.511.511,0,0,0,.1-.057,1.346,1.346,0,0,1,2.036.4,1.923,1.923,0,0,1,0,1.8,1.363,1.363,0,0,1-1.874.516A1.272,1.272,0,0,0,35.059,30.694Zm1.184-1.35a.616.616,0,0,0-.629-.669.625.625,0,0,0-.634.673.638.638,0,0,0,.647.69.629.629,0,0,0,.616-.695Z" transform="translate(-19.163 -15.62)" fill="#fff"/>
  <path id="Path_491" data-name="Path 491" d="M10.151,25a1.446,1.446,0,0,1,1.429.874,1.009,1.009,0,0,1,.044.122c0,.079,0,.14-.079.162l-.786.21c-.1.026-.135-.057-.179-.127a.516.516,0,0,0-.572-.3.319.319,0,0,0-.3.223.288.288,0,0,0,.175.323,3.2,3.2,0,0,0,.4.17c.249.1.507.184.752.3a1.167,1.167,0,0,1,.7,1.153,1.18,1.18,0,0,1-.756,1.119,1.979,1.979,0,0,1-1.7,0,1.446,1.446,0,0,1-.734-.821c-.07-.175-.048-.214.14-.262s.389-.092.581-.144a.188.188,0,0,1,.258.114.738.738,0,0,0,.913.315.267.267,0,0,0,.083-.481,1.127,1.127,0,0,0-.31-.17c-.192-.079-.393-.131-.581-.214a2.884,2.884,0,0,1-.559-.306,1.206,1.206,0,0,1,0-1.922A1.638,1.638,0,0,1,10.151,25Z" transform="translate(-4.79 -14.072)" fill="#fff"/>
  <path id="Path_492" data-name="Path 492" d="M18.056,26.524a.568.568,0,0,0,.1-.057,1.271,1.271,0,0,1,1.092-.223.961.961,0,0,1,.8,1v1.94c0,.087-.035.157-.14.157h-.752c-.131,0-.144-.092-.144-.192V27.8a2.582,2.582,0,0,0,0-.262.406.406,0,0,0-.3-.393.459.459,0,0,0-.533.223,1.123,1.123,0,0,0-.1.437v1.311c0,.218,0,.232-.236.232h-.568c-.227,0-.24,0-.24-.249V25.139a.127.127,0,0,1,.14-.14h.756c.135,0,.144.092.144.192V26.5Z" transform="translate(-9.588 -14.076)" fill="#fff"/>
  <path id="Path_493" data-name="Path 493" d="M26.754,31a1.582,1.582,0,0,1-1.359-.6,1.617,1.617,0,0,1-.184-1.678,1.433,1.433,0,0,1,1.311-.874,2.552,2.552,0,0,1,.73.035,1.494,1.494,0,0,1,1.2,1.7A1.525,1.525,0,0,1,26.754,31Zm0-2.268a.658.658,0,1,0,.625.682.62.62,0,0,0-.6-.682Z" transform="translate(-14.109 -15.672)" fill="#fff"/>
  <path id="Path_494" data-name="Path 494" d="M30.99,14.223c-.031.092-.048.157-.07.218l-1.586,3.871c-.1.236-.1.236-.358.236h-.524a1.674,1.674,0,0,1-.223-.026,1.49,1.49,0,0,1,.07-.232c.14-.358.28-.717.437-1.066a.38.38,0,0,0,0-.323q-.546-1.215-1.1-2.429c-.031-.07-.048-.144-.079-.232a1.311,1.311,0,0,1,.149-.039H28.5c.127,0,.175.07.214.175.162.437.332.852.5,1.28a.489.489,0,0,0,.074.179h.039c.031-.066.057-.135.083-.2.166-.415.332-.83.489-1.25a.249.249,0,0,1,.28-.188h.6C30.841,14.2,30.9,14.214,30.99,14.223Z" transform="translate(-15.518 -7.992)" fill="#fff"/>
</svg>
