<svg xmlns="http://www.w3.org/2000/svg" width="21.2" height="23.91" viewBox="0 0 21.2 23.91">
  <g id="P.Lean_-_Website_-_Icon_Shopee_Over_220902" data-name="P.Lean - Website - Icon Shopee (Over) 220902" transform="translate(-6.9 -3.65)">
    <path id="Path_106" data-name="Path 106" d="M28.1,9.88a.45.45,0,0,0-.45-.45H22.73c-.12-3.22-2.42-5.78-5.23-5.78s-5.11,2.56-5.23,5.78H7.34a.45.45,0,0,0-.44.45h0l.7,15.49v.19h0a2.1,2.1,0,0,0,2,2H25.28a2.16,2.16,0,0,0,2-2h0a.22.22,0,0,0,0-.08L28.1,9.91h0ZM17.5,5.05c2.05,0,3.72,1.94,3.8,4.38H13.7C13.78,7,15.45,5.05,17.5,5.05Z" fill="#F27321"/>
    <path id="Path_107" data-name="Path 107" d="M21.39,21.57a3.1,3.1,0,0,1-1.92,2.53,4.66,4.66,0,0,1-2,.35,6.53,6.53,0,0,1-2.8-.72A6.63,6.63,0,0,1,13.51,23c-.09-.08-.1-.12,0-.21l.22-.32.23-.35a.16.16,0,0,1,.26,0h.05l.07.06a5.37,5.37,0,0,0,3.11,1.19c1.52,0,2.61-.71,2.81-1.76s-.69-2.15-2.47-2.71a21.2,21.2,0,0,1-2.24-.9,2.93,2.93,0,0,1-1.7-2.8,3.28,3.28,0,0,1,3.48-2.8,6.41,6.41,0,0,1,2.49.51,7.17,7.17,0,0,1,1,.53.17.17,0,0,1,.06.25c0,.06-.09.14-.2.32h0c-.15.24-.15.25-.19.3a.143.143,0,0,1-.23,0,5.2,5.2,0,0,0-2.87-.89A2.18,2.18,0,0,0,15,15.32c0,.95.7,1.65,2.25,2.18C20.41,18.51,21.61,19.7,21.39,21.57Z" fill="#fff"/>
  </g>
</svg>