<svg id="P.Lean_-_Website_-_Contact_Shopee_220902" data-name="P.Lean - Website - Contact (Shopee) 220902" xmlns="http://www.w3.org/2000/svg" width="50" height="50" viewBox="0 0 50 50">
  <path id="Path_57" data-name="Path 57" d="M25,0A25,25,0,1,0,50,25,25,25,0,0,0,25,0Z" fill="#f15b2e"/>
  <path id="Path_58" data-name="Path 58" d="M40.15,14.12a.65.65,0,0,0-.65-.65h-7C32.3,8.88,29,5.22,25,5.22s-7.29,3.66-7.47,8.25h-7a.65.65,0,0,0-.64.65.07.07,0,0,0,0,.05h0l1,22.13v.28h0a3,3,0,0,0,2.79,2.84H36.11A3.08,3.08,0,0,0,39,36.56h0v-.19l1.1-22.21h0ZM25,7.21c2.93,0,5.31,2.78,5.43,6.26H19.58C19.69,10,22.07,7.21,25,7.21Z" fill="#fff"/>
  <path id="Path_59" data-name="Path 59" d="M30.55,30.81a4.43,4.43,0,0,1-2.73,3.62,6.72,6.72,0,0,1-2.93.5,9.41,9.41,0,0,1-4-1,10.24,10.24,0,0,1-1.6-1.1c-.13-.11-.14-.18-.06-.3s.13-.19.32-.46l.33-.49a.23.23,0,0,1,.36,0h0l.08.06.09.08a7.74,7.74,0,0,0,4.45,1.7c2.17,0,3.74-1,4-2.51s-1-3.08-3.52-3.87a31.42,31.42,0,0,1-3.17-1.27,4.19,4.19,0,0,1-2.44-4c.18-2.28,2.3-4,5-4a9.21,9.21,0,0,1,3.55.73,8.72,8.72,0,0,1,1.38.76.24.24,0,0,1,.09.36c0,.08-.12.2-.28.46h0l-.27.42c-.08.13-.18.14-.33,0a7.43,7.43,0,0,0-4.1-1.27,3.1,3.1,0,0,0-3.36,2.66c-.1,1.52,1,2.36,3.22,3.12C29.16,26.45,30.88,28.14,30.55,30.81Z" fill="#f15b2e"/>
</svg>
